<?xml version="1.0" encoding="utf-8"?>
<!-- Generator: Adobe Illustrator 17.0.0, SVG Export Plug-In . SVG Version: 6.00 Build 0)  -->
<!DOCTYPE svg PUBLIC "-//W3C//DTD SVG 1.1//EN" "http://www.w3.org/Graphics/SVG/1.1/DTD/svg11.dtd">
<svg version="1.1" id="Capa_1" xmlns="http://www.w3.org/2000/svg" xmlns:xlink="http://www.w3.org/1999/xlink" x="0px" y="0px"
	 width="50px" height="38.5px" viewBox="0 0 50 38.5" enable-background="new 0 0 50 38.5" xml:space="preserve">
<g>
	<path fill="#5D5D5D" d="M29.38,22.401c-0.182,0.609-0.332,1.108-0.525,1.752c-0.673-0.196-1.297-0.375-1.919-0.559
		c-7.129-2.109-14.257-4.223-21.389-6.323c-0.622-0.183-1.104-0.264-0.82-1.18c0.266-0.855,0.594-0.897,1.36-0.667
		c7.458,2.237,14.929,4.434,22.395,6.645C28.748,22.148,29.003,22.261,29.38,22.401z"/>
	<path fill="#5D5D5D" d="M5.528,13.608c0.174-0.626,0.32-1.152,0.507-1.826c8.122,2.405,16.173,4.789,24.357,7.212
		c-0.186,0.616-0.353,1.168-0.55,1.819C21.721,18.406,13.669,16.02,5.528,13.608z"/>
	<path fill="#5D5D5D" d="M31.368,15.643c-0.192,0.669-0.343,1.195-0.525,1.826c-5.889-1.747-11.681-3.465-17.53-5.201
		c0.196-0.634,0.359-1.159,0.56-1.808C19.703,12.187,25.464,13.894,31.368,15.643z"/>
	<path fill="#5D5D5D" d="M14.344,8.795c0.171-0.546,0.335-1.068,0.532-1.695c2.507,0.745,4.93,1.467,7.354,2.186
		c3.11,0.923,6.215,1.864,9.335,2.75c0.713,0.202,0.793,0.501,0.569,1.14c-0.192,0.548-0.266,0.966-1.055,0.727
		c-5.466-1.655-10.944-3.265-16.418-4.893C14.597,8.99,14.544,8.932,14.344,8.795z"/>
	<path fill="#5D5D5D" d="M33.884,20.513c-0.35,1.127-0.62,2.111-0.981,3.06c-0.075,0.198-0.583,0.437-0.726,0.358
		c-0.238-0.132-0.521-0.544-0.472-0.771c0.206-0.958,0.487-1.907,0.834-2.824c0.088-0.234,0.538-0.491,0.784-0.458
		C33.549,19.907,33.723,20.315,33.884,20.513z"/>
	<path fill="#5D5D5D" d="M31.972,26.588c-0.161-0.198-0.336-0.606-0.561-0.636c-0.246-0.033-0.696,0.224-0.784,0.458
		c-0.14,0.37-0.266,0.745-0.384,1.124c0.434,0.203,0.897,0.229,1.343,0.321C31.71,27.45,31.835,27.03,31.972,26.588z"/>
	<path fill="#5D5D5D" d="M35.565,14.792c-0.32,1.081-0.54,2.009-0.887,2.887c-0.1,0.253-0.565,0.361-0.863,0.536
		c-0.132-0.311-0.421-0.655-0.366-0.929c0.179-0.892,0.435-1.778,0.77-2.624c0.102-0.256,0.552-0.496,0.851-0.506
		C35.246,14.151,35.436,14.614,35.565,14.792z"/>
	<path fill="#5D5D5D" d="M35.513,10.524c-0.052,0.215-0.101,0.431-0.144,0.648c-0.055,0.274,0.234,0.617,0.366,0.929
		c0.298-0.175,0.763-0.283,0.863-0.536c0.08-0.203,0.154-0.41,0.223-0.62C36.367,10.851,35.928,10.714,35.513,10.524z"/>
	<path fill="#5D5D5D" d="M5.401,33.897c-0.026-0.322-0.032-0.565-0.069-0.804c-0.129-0.844,0.224-1.073,1.062-1.068
		c6.222,0.034,12.444,0.019,18.666,0.018c1.836,0,3.671,0,5.608,0c0,0.632,0,1.205,0,1.853
		C22.299,33.897,13.903,33.897,5.401,33.897z"/>
	<path fill="#5D5D5D" d="M30.73,28.68c0,0.594,0,1.114,0,1.751c-0.444,0.023-0.855,0.062-1.266,0.062
		c-7.531,0.004-15.063,0.003-22.594,0.003c-1.699,0-1.699-0.001-1.417-1.815C13.833,28.68,22.226,28.68,30.73,28.68z"/>
	<path fill="#5D5D5D" d="M48.563,14.008c-0.364-0.749-1.115-1.141-1.872-1.383c-2.734-0.874-5.514-1.616-8.264-2.443
		c-0.463-0.139-0.925-0.282-1.388-0.42c-4.233-1.261-8.467-2.519-12.702-3.774c-4.235-1.255-8.47-2.509-12.706-3.762
		c-1.228-0.363-2.456-0.727-3.685-1.09C6.651,0.752,5.753,1.181,5.373,2.445C3.87,7.446,2.372,12.451,0.968,17.48
		c-0.155,0.556,0.118,1.453,0.522,1.883c0.443,0.472,0.578,0.873,0.577,1.454c-0.011,4.674-0.007,9.347-0.006,14.021
		c0.001,1.962,0.567,2.537,2.503,2.537c13.313,0.001,26.626,0.001,39.939,0c1.954,0,2.514-0.557,2.517-2.521
		c0.005-4.001,0.102-8.005-0.033-12.002c-0.094-2.772,0.773-5.27,1.627-7.806C48.746,14.652,48.709,14.307,48.563,14.008z
		 M45.607,35.34c-0.003,0.241-0.444,0.681-0.686,0.684c-3.429,0.045-6.858,0.031-9.936,0.031l-1.924,0.004c-0.346,0-0.692,0-1.038,0
		c-9.064,0-18.127,0-27.191,0c-1.443,0-1.446-0.003-1.447-1.398c-0.002-4.426-0.001-8.851-0.001-13.277c0-0.345,0-0.691,0-1.179
		l11.978,3.392l5.789,1.435h-2.007c-2.181,0-4.362,0-6.605,0c0,0.681,0,1.231,0,1.937c0.374,0,0.749,0,1.124,0
		c3.363,0,6.732,0.116,10.089-0.034c3.188-0.142,5.984,1.222,8.941,1.968c0.195,0.049,0.401,0.448,0.425,0.701
		c0.061,0.631,0.013,1.273,0.024,1.91c0.009,0.552-0.119,1.318,0.663,1.326c0.863,0.009,0.712-0.797,0.725-1.379
		c0.014-0.63,0.003-1.261,0.003-2.03c2.41,0.71,4.605,1.364,6.805,2.001c1.521,0.44,2.344-0.015,2.805-1.537
		c0.444-1.468,0.874-2.941,1.494-4.38C45.638,28.79,45.653,32.066,45.607,35.34z M47.089,15.249
		c-1.427,4.729-2.826,9.467-4.224,14.204c-0.176,0.596-0.417,0.915-1.128,0.699c-3.236-0.984-6.482-1.932-9.461-2.815l-1.764-0.539
		c-1.986-0.587-3.973-1.172-5.959-1.76c-7.104-2.104-14.204-4.223-21.318-6.295c-0.873-0.254-1.144-0.587-0.871-1.486
		c1.416-4.659,2.797-9.329,4.17-14.001C6.732,2.58,6.93,2.233,7.775,2.486c8.696,2.605,17.405,5.171,26.109,7.749v0l3.478,1.02
		c2.977,0.883,5.944,1.801,8.932,2.648C47.084,14.127,47.332,14.442,47.089,15.249z"/>
	<path fill="#5D5D5D" d="M34.546,35.434c0-0.385-0.315-0.699-0.699-0.699s-0.699,0.315-0.699,0.699v1.164c0.466,0,0.932,0,1.399,0
		V35.434z"/>
</g>
</svg>
