<?xml version="1.0" encoding="utf-8"?>
<!-- Generator: Adobe Illustrator 17.0.0, SVG Export Plug-In . SVG Version: 6.00 Build 0)  -->
<!DOCTYPE svg PUBLIC "-//W3C//DTD SVG 1.1//EN" "http://www.w3.org/Graphics/SVG/1.1/DTD/svg11.dtd">
<svg version="1.1" id="Capa_1" xmlns="http://www.w3.org/2000/svg" xmlns:xlink="http://www.w3.org/1999/xlink" x="0px" y="0px"
	 width="63.75px" height="26px" viewBox="0 0 63.75 26" enable-background="new 0 0 63.75 26" xml:space="preserve">
<g>
	<g>
		<g>
			<path fill="#5D5D5D" d="M50.962,24.294L50.962,24.294h-0.01c-2.017-0.005-3.598-1.587-3.6-3.602
				c-0.001-1.003,0.368-1.927,1.039-2.603c0.672-0.676,1.592-1.049,2.591-1.049c2.012,0,3.598,1.585,3.611,3.608
				c0.006,0.99-0.362,1.909-1.038,2.589C52.877,23.918,51.956,24.294,50.962,24.294z M50.981,17.894
				c-0.769,0-1.474,0.283-1.984,0.797c-0.511,0.514-0.792,1.225-0.791,2c0.001,1.563,1.183,2.744,2.748,2.748l0.008,0.427v-0.427h0
				c0.765,0,1.471-0.286,1.987-0.805c0.514-0.517,0.794-1.221,0.789-1.981C53.728,19.106,52.517,17.894,50.981,17.894z"/>
		</g>
		<g>
			<path fill="#5D5D5D" d="M27.63,24.294L27.63,24.294h-0.01c-2.017-0.005-3.598-1.587-3.6-3.602
				c-0.001-1.003,0.368-1.927,1.039-2.603c0.672-0.676,1.592-1.049,2.591-1.049c2.012,0,3.598,1.585,3.611,3.608
				c0.006,0.99-0.362,1.909-1.038,2.589C29.546,23.918,28.625,24.294,27.63,24.294z M27.65,17.894c-0.769,0-1.474,0.283-1.984,0.797
				c-0.511,0.514-0.792,1.225-0.791,2c0.001,1.563,1.183,2.744,2.748,2.748l0.008,0.427v-0.427h0c0.765,0,1.471-0.286,1.987-0.805
				c0.514-0.517,0.794-1.221,0.789-1.981C30.396,19.106,29.185,17.894,27.65,17.894z"/>
		</g>
		<g>
			<path fill="#5D5D5D" d="M19.676,22.321l-1.689,0c-2.314-0.001-2.983-0.679-2.984-3.024C15,15.953,14.999,12.61,15.001,9.266
				c0-0.355-0.003-0.711-0.005-1.066c-0.007-0.957-0.014-1.947,0.034-2.927c0.146-2.971,1.561-4.479,4.206-4.483
				c11.084-0.013,22.169-0.009,33.254-0.006l2.257,0.001c1.28,0,2.438,0.451,3.442,1.34c1.142,1.011,1.971,2.321,2.609,4.122
				c1.743,4.927,1.87,10.036,1.787,13.936c-0.025,1.177-0.699,1.967-1.717,2.013c-0.586,0.026-1.22,0.039-1.993,0.039
				c-0.461,0-0.922-0.004-1.383-0.009c-0.456-0.004-0.913-0.008-1.369-0.008h-0.599l-0.042-0.598
				c-0.239-3.413-1.537-5.183-3.967-5.413c-1.068-0.101-2.058,0.166-2.929,0.791c-1.461,1.049-2.064,2.536-1.842,4.547l0.078,0.713
				H31.915l-0.046-0.593c-0.278-3.589-1.702-5.43-4.233-5.472l-0.085-0.001c-1.077,0-2.038,0.344-2.857,1.022
				c-1.245,1.031-1.745,2.432-1.572,4.408l0.061,0.699L19.676,22.321z M37.321,2.066c-6.028,0-12.057,0.002-18.084,0.009
				c-1.963,0.002-2.81,0.947-2.923,3.261c-0.046,0.944-0.04,1.915-0.033,2.855c0.003,0.359,0.005,0.718,0.005,1.076
				c-0.002,3.343-0.001,6.686,0.001,10.029c0.001,1.626,0.112,1.739,1.7,1.74l3.038,0l0.78,0c-0.033-2.056,0.648-3.634,2.069-4.811
				c1.056-0.874,2.292-1.317,3.676-1.317l0.107,0.001c1.795,0.03,4.824,0.873,5.435,6.064h12.323
				c-0.057-2.138,0.755-3.823,2.42-5.019c1.126-0.808,2.417-1.157,3.799-1.026c2.056,0.194,4.56,1.408,5.073,6.007
				c0.264,0.002,0.529,0.004,0.793,0.007c0.457,0.004,0.914,0.008,1.371,0.008c0.754,0,1.369-0.012,1.935-0.038
				c0.392-0.018,0.483-0.421,0.49-0.757c0.081-3.791-0.04-8.75-1.714-13.48c-0.562-1.588-1.276-2.728-2.249-3.589
				c-0.773-0.684-1.621-1.017-2.591-1.017l-2.257-0.001C47.433,2.067,42.377,2.066,37.321,2.066z"/>
		</g>
		<g>
			<path fill="#5D5D5D" d="M59.106,16.467L59.106,16.467c-0.177,0-0.362-0.058-0.551-0.172c-1.063-0.643-1.89-1.219-2.601-1.813
				c-1.701-1.421-3.436-2.871-5.457-3.808c-0.233-0.108-0.517-0.199-0.792-0.286c-0.647-0.206-1.315-0.42-1.608-0.931
				c-0.326-0.569-0.256-1.306-0.188-2.02c0.021-0.221,0.041-0.433,0.05-0.636l-0.007-0.196c0-0.245,0.003-0.489,0.006-0.734
				c0.007-0.55,0.015-1.118-0.017-1.669c-0.014-0.241-0.005-0.589,0.225-0.834c0.226-0.24,0.562-0.271,0.829-0.271l0.069,0.001
				c0.782,0.017,1.595,0.025,2.483,0.025c0.81,0,1.621-0.007,2.431-0.017l0.06,0c1.241,0,2.246,0.5,2.988,1.485
				c0.499,0.663,0.842,1.229,1.08,1.783c1.318,3.068,1.626,6.315,1.754,9.087c0.02,0.426-0.12,0.665-0.24,0.791
				C59.486,16.393,59.308,16.467,59.106,16.467z M48.595,6.32l0.01,0.285c0,0.292-0.029,0.598-0.057,0.893
				c-0.058,0.613-0.118,1.248,0.106,1.64c0.168,0.294,0.716,0.469,1.245,0.638c0.294,0.094,0.597,0.191,0.867,0.316
				c2.098,0.973,3.866,2.451,5.576,3.879c0.708,0.591,1.509,1.149,2.544,1.775c0.114,0.069,0.186,0.079,0.219,0.079l0,0
				c0.034,0,0.043-0.01,0.05-0.017c0.035-0.037,0.071-0.14,0.062-0.318c-0.125-2.714-0.426-5.89-1.703-8.864
				c-0.217-0.505-0.535-1.029-1.003-1.65c-0.622-0.827-1.432-1.229-2.474-1.229l-0.052,0c-0.813,0.011-1.626,0.017-2.439,0.017
				c-0.893,0-1.71-0.008-2.497-0.025L48.995,3.74c-0.258,0-0.337,0.043-0.362,0.069c-0.02,0.021-0.066,0.099-0.051,0.356
				c0.033,0.574,0.026,1.154,0.018,1.714C48.599,6.027,48.597,6.173,48.595,6.32z"/>
		</g>
		<g>
			<path fill="#5D5D5D" d="M18.295,9.846c-0.295,0-0.526-0.083-0.688-0.248c-0.23-0.234-0.253-0.56-0.248-0.817
				c0.006-0.306,0.01-0.611,0.014-0.917c0.012-0.92,0.024-1.872,0.094-2.808c0.103-1.389,0.706-1.933,2.151-1.94
				c0.796-0.004,1.593-0.005,2.389-0.005l5.105,0.003v6.729l-4.747-0.001c-1.362,0-2.714,0.001-4.065,0.006H18.295z M22.007,3.752
				c-0.796,0-1.591,0.001-2.386,0.005c-1.11,0.006-1.436,0.295-1.514,1.345c-0.068,0.917-0.08,1.859-0.092,2.769
				c-0.004,0.307-0.008,0.614-0.014,0.921c-0.004,0.234,0.033,0.323,0.065,0.355c0.035,0.036,0.116,0.055,0.229,0.055v0.321
				l0.003-0.321c1.352-0.005,2.704-0.006,4.067-0.006l4.104,0.001V3.754L22.007,3.752z"/>
		</g>
		<g>
			<path fill="#5D5D5D" d="M47.15,9.791h-9.122V3.184h9.122V9.791z M38.671,9.148h7.837V3.826h-7.837V9.148z"/>
		</g>
		<g>
			<path fill="#5D5D5D" d="M37.124,9.794h-9.125v-6.64h9.125V9.794z M28.641,9.151h7.84V3.796h-7.84V9.151z"/>
		</g>
	</g>
	<g>
		<g>
			<path fill="#5D5D5D" d="M12.438,11.667H1.679c-0.297,0-0.538-0.351-0.538-0.5c0-0.149,0.241-0.5,0.538-0.5h10.758
				c0.297,0,0.538,0.351,0.538,0.5C12.976,11.315,12.735,11.667,12.438,11.667z"/>
		</g>
		<g>
			<path fill="#5D5D5D" d="M12.438,15.667H1.679c-0.297,0-0.538-0.351-0.538-0.5c0-0.149,0.241-0.5,0.538-0.5h10.758
				c0.297,0,0.538,0.351,0.538,0.5C12.976,15.315,12.735,15.667,12.438,15.667z"/>
		</g>
		<g>
			<path fill="#5D5D5D" d="M12.438,13.667h-7.89c-0.297,0-0.538-0.203-0.538-0.5c0-0.297,0.241-0.5,0.538-0.5h7.89
				c0.297,0,0.538,0.203,0.538,0.5C12.976,13.464,12.735,13.667,12.438,13.667z"/>
		</g>
	</g>
</g>
</svg>
