<?xml version="1.0" encoding="utf-8"?>
<!-- Generator: Adobe Illustrator 17.0.0, SVG Export Plug-In . SVG Version: 6.00 Build 0)  -->
<!DOCTYPE svg PUBLIC "-//W3C//DTD SVG 1.1//EN" "http://www.w3.org/Graphics/SVG/1.1/DTD/svg11.dtd">
<svg version="1.1" id="Capa_1" xmlns="http://www.w3.org/2000/svg" xmlns:xlink="http://www.w3.org/1999/xlink" x="0px" y="0px"
	 width="58.107px" height="54.036px" viewBox="0 0 58.107 54.036" enable-background="new 0 0 58.107 54.036" xml:space="preserve">
<g>
	<path fill="#5D5D5D" d="M3.838,14.894h1.675V24.94H3.838c-0.926,0-1.675-0.745-1.675-1.674v-6.698
		C2.163,15.647,2.912,14.894,3.838,14.894z M54.072,14.894h-1.676V24.94h1.676c0.924,0,1.675-0.745,1.675-1.674v-6.698
		C55.747,15.647,54.999,14.894,54.072,14.894z M49.049,11.546v30.14c0,1.852-1.497,3.349-3.349,3.349v3.349
		c0,1.852-1.497,3.349-3.349,3.349h-3.35c-1.851,0-3.349-1.5-3.349-3.349v-3.349H22.258v3.349c0,1.852-1.498,3.349-3.349,3.349
		h-3.348c-1.852,0-3.349-1.5-3.349-3.349v-3.349c-1.851,0-3.349-1.5-3.349-3.349v-30.14C8.861,5.999,13.362,1.5,18.909,1.5h20.094
		C44.549,1.5,49.049,5.998,49.049,11.546z M22.258,8.198h13.396V4.849H22.258V8.198z M18.909,38.339
		c0-1.854-1.498-3.349-3.348-3.349c-1.851,0-3.349,1.497-3.349,3.349c0,1.85,1.498,3.349,3.349,3.349
		C17.41,41.687,18.909,40.187,18.909,38.339z M45.7,38.339c0-1.854-1.497-3.349-3.349-3.349s-3.349,1.497-3.349,3.349
		c0,1.85,1.499,3.349,3.349,3.349C44.203,41.687,45.7,40.187,45.7,38.339z M45.7,11.546H12.21V31.64H45.7V11.546L45.7,11.546z"/>
</g>
</svg>
