<?xml version="1.0" encoding="utf-8"?>
<!-- Generator: Adobe Illustrator 17.0.0, SVG Export Plug-In . SVG Version: 6.00 Build 0)  -->
<!DOCTYPE svg PUBLIC "-//W3C//DTD SVG 1.1//EN" "http://www.w3.org/Graphics/SVG/1.1/DTD/svg11.dtd">
<svg version="1.1" id="Capa_1" xmlns="http://www.w3.org/2000/svg" xmlns:xlink="http://www.w3.org/1999/xlink" x="0px" y="0px"
	 width="47.667px" height="50px" viewBox="0 0 47.667 50" enable-background="new 0 0 47.667 50" xml:space="preserve">
<g>
	<g>
		<g>
			<g>
				<path fill="#5D5D5D" d="M16.534,22.58h14.753h0.721v0.721v8.114v0.721h-0.721h-7.814l-1.495,2.59l-0.622,1.077l-0.622-1.077
					l-1.496-2.59h-2.704h-0.721v-0.721v-8.114V22.58H16.534L16.534,22.58z M30.567,24.021H17.255v6.673h2.397h0.414l0.208,0.36
					l1.081,1.873l1.081-1.873l0.208-0.36h0.414h7.508V24.021z"/>
			</g>
		</g>
	</g>
	<g>
		<g>
			<g>
				<g>
					<g>
						<path fill="#5D5D5D" d="M4.299,22.45h2.359c1.039,0,1.983,0.424,2.666,1.108s1.108,1.627,1.108,2.666v7.527
							c0,1.039-0.424,1.983-1.108,2.666C8.64,37.1,7.696,37.525,6.658,37.525H4.299c-1.039,0-1.983-0.424-2.666-1.108
							c-0.684-0.683-1.108-1.627-1.108-2.666v-7.527c0-1.039,0.424-1.983,1.108-2.666C2.317,22.874,3.26,22.45,4.299,22.45
							L4.299,22.45z M6.658,24.412H4.299c-0.497,0-0.95,0.204-1.279,0.533c-0.329,0.329-0.533,0.782-0.533,1.279v7.527
							c0,0.497,0.204,0.95,0.533,1.279c0.329,0.329,0.782,0.533,1.279,0.533h2.359c0.497,0,0.95-0.204,1.279-0.533
							c0.329-0.329,0.533-0.782,0.533-1.279v-7.527c0-0.497-0.204-0.95-0.533-1.279C7.608,24.616,7.155,24.412,6.658,24.412z"/>
						<path fill="#5D5D5D" d="M40.359,22.45h2.359c1.039,0,1.983,0.424,2.666,1.108c0.684,0.684,1.108,1.627,1.108,2.666v7.527
							c0,1.039-0.424,1.983-1.108,2.666c-0.684,0.684-1.627,1.108-2.666,1.108h-2.359c-1.039,0-1.983-0.424-2.666-1.108
							c-0.684-0.684-1.108-1.627-1.108-2.666v-7.527c0-1.039,0.424-1.983,1.108-2.666C38.377,22.874,39.32,22.45,40.359,22.45
							L40.359,22.45z M42.718,24.412h-2.359c-0.497,0-0.95,0.204-1.279,0.533c-0.329,0.329-0.533,0.782-0.533,1.279v7.527
							c0,0.497,0.204,0.95,0.533,1.279c0.329,0.329,0.782,0.533,1.279,0.533h2.359c0.497,0,0.95-0.204,1.279-0.533
							c0.329-0.329,0.533-0.782,0.533-1.279v-7.527c0-0.497-0.204-0.95-0.533-1.279C43.668,24.616,43.215,24.412,42.718,24.412z"/>
						<path fill="#5D5D5D" d="M4.497,23.431v-5.017c0-4.966,2.031-9.48,5.303-12.752c3.272-3.272,7.786-5.303,12.752-5.303h2.197
							c4.966,0,9.48,2.031,12.752,5.303c3.272,3.272,5.303,7.786,5.303,12.752v5.017h-1.962v-5.017
							c0-4.425-1.811-8.448-4.728-11.365s-6.94-4.728-11.365-4.728h-2.197c-4.425,0-8.448,1.811-11.365,4.728
							C8.27,9.967,6.459,13.99,6.459,18.414v5.017H4.497z"/>
						<path fill="#5D5D5D" d="M41.336,36.624c0.044-0.54-0.357-1.013-0.897-1.058c-0.54-0.044-1.013,0.357-1.058,0.897
							c-0.293,3.404-1.678,5.845-4.18,7.301c-2.618,1.524-6.473,2.041-11.591,1.531c-0.537-0.053-1.016,0.34-1.069,0.877
							c-0.053,0.538,0.34,1.016,0.877,1.069c5.539,0.552,9.785-0.051,12.763-1.784C39.277,43.657,40.985,40.704,41.336,36.624z"/>
					</g>
				</g>
			</g>
			<ellipse fill="#5D5D5D" cx="25.969" cy="45.888" rx="4.403" ry="3.226"/>
		</g>
	</g>
</g>
</svg>
