<?xml version="1.0" encoding="utf-8"?>
<!-- Generator: Adobe Illustrator 17.0.0, SVG Export Plug-In . SVG Version: 6.00 Build 0)  -->
<!DOCTYPE svg PUBLIC "-//W3C//DTD SVG 1.1//EN" "http://www.w3.org/Graphics/SVG/1.1/DTD/svg11.dtd">
<svg version="1.1" id="Capa_1" xmlns="http://www.w3.org/2000/svg" xmlns:xlink="http://www.w3.org/1999/xlink" x="0px" y="0px"
	 width="43.333px" height="45.35px" viewBox="0 0 43.333 45.35" enable-background="new 0 0 43.333 45.35" xml:space="preserve">
<g>
	<g>
		<path fill="#5D5D5D" d="M12.601,29.097h24.135c2.737,0,4.969-2.233,4.969-4.969V13.974c0-0.009,0-0.027,0-0.036
			c0-0.027,0-0.045,0-0.072c0-0.018,0-0.036-0.009-0.054c0-0.018-0.009-0.045-0.009-0.063c0-0.018-0.009-0.036-0.009-0.054
			c-0.009-0.018-0.009-0.036-0.018-0.063c-0.009-0.018-0.009-0.036-0.018-0.054c-0.009-0.018-0.009-0.036-0.018-0.054
			c-0.009-0.018-0.018-0.036-0.027-0.063c-0.009-0.018-0.018-0.036-0.027-0.045c-0.009-0.018-0.018-0.036-0.027-0.054
			c-0.009-0.018-0.018-0.027-0.027-0.045c-0.009-0.018-0.027-0.036-0.036-0.054c-0.009-0.018-0.018-0.027-0.036-0.045
			c-0.009-0.018-0.027-0.027-0.036-0.045s-0.027-0.027-0.036-0.045c-0.009-0.018-0.027-0.027-0.036-0.036
			c-0.018-0.018-0.027-0.027-0.045-0.045c-0.018-0.009-0.027-0.027-0.045-0.036c-0.018-0.009-0.036-0.027-0.054-0.036
			c-0.018-0.009-0.027-0.018-0.045-0.027c-0.018-0.009-0.036-0.018-0.054-0.036c-0.018-0.009-0.036-0.018-0.054-0.027
			s-0.036-0.018-0.054-0.027s-0.036-0.018-0.054-0.027s-0.036-0.009-0.054-0.018c-0.018-0.009-0.045-0.018-0.063-0.018
			s-0.036-0.009-0.045-0.009c-0.027-0.009-0.045-0.009-0.072-0.009c-0.009,0-0.018-0.009-0.036-0.009L10.071,8.545V4.278
			c0-0.045,0-0.09-0.009-0.126c0-0.009,0-0.018-0.009-0.036c0-0.027-0.009-0.054-0.009-0.081c-0.009-0.027-0.009-0.045-0.018-0.072
			c0-0.018-0.009-0.027-0.009-0.045C10.008,3.891,9.999,3.864,9.99,3.837c0-0.009-0.009-0.027-0.009-0.036
			C9.972,3.774,9.963,3.756,9.945,3.729C9.936,3.72,9.936,3.702,9.927,3.693C9.918,3.675,9.909,3.657,9.891,3.639
			C9.882,3.621,9.873,3.612,9.864,3.594S9.846,3.567,9.837,3.549S9.81,3.513,9.801,3.495C9.792,3.486,9.783,3.477,9.774,3.468
			C9.756,3.45,9.738,3.432,9.72,3.414C9.711,3.405,9.702,3.396,9.693,3.387C9.675,3.369,9.657,3.351,9.63,3.333
			C9.621,3.324,9.603,3.315,9.594,3.306C9.576,3.288,9.558,3.279,9.54,3.261C9.513,3.243,9.486,3.225,9.468,3.216
			C9.459,3.207,9.45,3.207,9.441,3.198C9.405,3.18,9.36,3.162,9.324,3.144L2.69,0.353C2.068,0.092,1.357,0.381,1.096,1.002
			s0.027,1.332,0.648,1.593L7.632,5.08v5.509v0.873v6.698v5.986v7.562c0,2.521,1.89,4.609,4.33,4.924
			c-0.441,0.738-0.702,1.602-0.702,2.521c0,2.71,2.206,4.906,4.906,4.906s4.906-2.206,4.906-4.906c0-0.9-0.243-1.755-0.675-2.476
			h10.929c-0.432,0.729-0.675,1.575-0.675,2.476c0,2.71,2.206,4.906,4.906,4.906s4.906-2.206,4.906-4.906s-2.206-4.906-4.906-4.906
			H12.601c-1.404,0-2.539-1.143-2.539-2.539v-3.295C10.801,28.845,11.674,29.097,12.601,29.097z M18.65,39.144
			c0,1.368-1.116,2.476-2.476,2.476s-2.476-1.116-2.476-2.476c0-1.359,1.116-2.476,2.476-2.476S18.65,37.775,18.65,39.144z
			 M38.041,39.144c0,1.368-1.116,2.476-2.476,2.476s-2.476-1.116-2.476-2.476c0-1.359,1.116-2.476,2.476-2.476
			S38.041,37.775,38.041,39.144z M36.736,26.667H12.601c-1.404,0-2.539-1.143-2.539-2.539v-5.986v-6.698v-0.45l29.212,4.024v9.101
			C39.274,25.533,38.131,26.667,36.736,26.667z"/>
	</g>
</g>
</svg>
