<?xml version="1.0" encoding="utf-8"?>
<!-- Generator: Adobe Illustrator 17.0.0, SVG Export Plug-In . SVG Version: 6.00 Build 0)  -->
<!DOCTYPE svg PUBLIC "-//W3C//DTD SVG 1.1//EN" "http://www.w3.org/Graphics/SVG/1.1/DTD/svg11.dtd">
<svg version="1.1" id="Capa_1" xmlns="http://www.w3.org/2000/svg" xmlns:xlink="http://www.w3.org/1999/xlink" x="0px" y="0px"
	 width="37.667px" height="50px" viewBox="0 0 37.667 50" enable-background="new 0 0 37.667 50" xml:space="preserve">
<g>
	<g>
		<g>
			<path fill="#5D5D5D" d="M18.802,12.075c1.118,0,2.131,0.51,2.864,1.334c0.733,0.825,1.186,1.964,1.186,3.221
				c0,1.257-0.485,2.967-1.253,4.245c-0.707,1.179-1.675,2.043-2.797,2.043c-1.122,0-2.09-0.864-2.797-2.043
				c-0.767-1.279-1.253-2.988-1.253-4.245c0-1.258,0.453-2.397,1.186-3.221C16.671,12.585,17.684,12.075,18.802,12.075
				L18.802,12.075z M20.46,14.766c-0.424-0.477-1.01-0.772-1.658-0.772s-1.234,0.295-1.658,0.772
				c-0.424,0.477-0.686,1.137-0.686,1.865c0,0.917,0.372,2.194,0.959,3.174c0.414,0.69,0.909,1.196,1.385,1.196
				c0.476,0,0.971-0.506,1.385-1.196c0.588-0.98,0.96-2.257,0.96-3.174C21.146,15.903,20.884,15.243,20.46,14.766z"/>
		</g>
		<g>
			<path fill="#5D5D5D" d="M24.826,32.057c0.165-0.21,0.298-0.429,0.395-0.654c0.122-0.281,0.187-0.574,0.187-0.872
				c0-1.192-0.883-2.887-2.278-4.216c-1.169-1.114-2.685-1.931-4.329-1.931c-1.644,0-3.16,0.817-4.329,1.931
				c-1.395,1.329-2.278,3.024-2.278,4.216c0,0.298,0.065,0.591,0.187,0.872c0.098,0.225,0.231,0.444,0.395,0.654H24.826
				L24.826,32.057z M26.754,32.242c-0.221,0.509-0.54,0.986-0.942,1.421c-0.156,0.192-0.38,0.312-0.629,0.312H12.421v0
				c-0.21,0-0.42-0.086-0.584-0.261l0.001-0.002c-0.424-0.449-0.759-0.943-0.988-1.471c-0.235-0.541-0.36-1.115-0.36-1.711
				c0-1.707,1.117-3.994,2.884-5.677c1.446-1.378,3.342-2.388,5.428-2.388c2.087,0,3.982,1.011,5.428,2.388
				c1.766,1.683,2.884,3.97,2.884,5.677C27.114,31.127,26.989,31.701,26.754,32.242z"/>
		</g>
	</g>
	<g>
		<path fill="#5D5D5D" d="M5.348,0.406h26.907c1.225,0,2.337,0.563,3.143,1.47c0.806,0.907,1.307,2.159,1.307,3.537v37.943
			c0,1.378-0.5,2.63-1.307,3.537c-0.806,0.907-1.919,1.47-3.143,1.47H5.348c-1.225,0-2.337-0.563-3.143-1.47
			c-0.806-0.907-1.307-2.159-1.307-3.537V5.413c0-1.378,0.5-2.63,1.307-3.537C3.011,0.969,4.124,0.406,5.348,0.406L5.348,0.406z
			 M32.255,2.325H5.348c-0.754,0-1.44,0.348-1.938,0.908c-0.498,0.56-0.807,1.332-0.807,2.18v37.943c0,0.848,0.309,1.62,0.807,2.18
			s1.184,0.908,1.938,0.908h26.907c0.754,0,1.44-0.348,1.938-0.908c0.498-0.56,0.807-1.332,0.807-2.18V5.413
			c0-0.848-0.309-1.62-0.807-2.18C33.695,2.672,33.009,2.325,32.255,2.325z"/>
	</g>
	<g>
		<path fill="#5D5D5D" d="M1.751,8.079c-0.471,0-0.853,0.43-0.853,0.959c0,0.53,0.382,0.959,0.853,0.959h34.102
			c0.471,0,0.853-0.43,0.853-0.959c0-0.53-0.382-0.959-0.853-0.959H1.751z"/>
	</g>
	<g>
		<path fill="#5D5D5D" d="M1.751,35.894c-0.471,0-0.853,0.43-0.853,0.959c0,0.53,0.382,0.959,0.853,0.959h34.102
			c0.471,0,0.853-0.429,0.853-0.959c0-0.53-0.382-0.959-0.853-0.959H1.751z"/>
	</g>
	<g>
		<path fill="#5D5D5D" d="M15.818,4.244c-0.471,0-0.853,0.43-0.853,0.959c0,0.53,0.382,0.959,0.853,0.959h5.968
			c0.471,0,0.853-0.429,0.853-0.959c0-0.53-0.382-0.959-0.853-0.959H15.818z"/>
	</g>
	<g>
		<path fill="#5D5D5D" d="M18.802,39.796c0.582,0,1.11,0.266,1.491,0.695c0.382,0.429,0.618,1.023,0.618,1.678
			s-0.236,1.249-0.618,1.678c-0.382,0.429-0.909,0.695-1.491,0.695c-0.582,0-1.11-0.266-1.491-0.695
			c-0.382-0.429-0.618-1.023-0.618-1.678s0.236-1.249,0.618-1.678C17.692,40.062,18.219,39.796,18.802,39.796L18.802,39.796z
			 M19.389,41.508c-0.15-0.169-0.358-0.274-0.587-0.274s-0.437,0.105-0.587,0.274c-0.15,0.169-0.243,0.403-0.243,0.661
			c0,0.258,0.093,0.492,0.243,0.661c0.15,0.169,0.358,0.274,0.587,0.274s0.437-0.105,0.587-0.274
			c0.15-0.169,0.243-0.403,0.243-0.661C19.632,41.911,19.539,41.677,19.389,41.508z"/>
	</g>
</g>
</svg>
