<?xml version="1.0" encoding="utf-8"?>
<!-- Generator: Adobe Illustrator 17.0.0, SVG Export Plug-In . SVG Version: 6.00 Build 0)  -->
<!DOCTYPE svg PUBLIC "-//W3C//DTD SVG 1.1//EN" "http://www.w3.org/Graphics/SVG/1.1/DTD/svg11.dtd">
<svg version="1.1" id="Capa_1" xmlns="http://www.w3.org/2000/svg" xmlns:xlink="http://www.w3.org/1999/xlink" x="0px" y="0px"
	 width="29.25px" height="50px" viewBox="0 0 29.25 50" enable-background="new 0 0 29.25 50" xml:space="preserve">
<g>
	<path fill="#5D5D5D" d="M24.094,1.305H4.508c-1.888,0-3.425,1.537-3.425,3.425v39.801c0,1.889,1.537,3.426,3.425,3.426h19.585
		c1.889,0,3.426-1.537,3.426-3.425V4.73C27.519,2.842,25.982,1.305,24.094,1.305z M2.638,7.525h23.326v29.546H2.638V7.525z
		 M4.508,2.86h19.585c1.032,0,1.871,0.839,1.871,1.87v1.24H2.638V4.73C2.638,3.699,3.477,2.86,4.508,2.86z M24.094,46.402H4.508
		c-1.031,0-1.87-0.839-1.87-1.87v-5.905h23.326v5.905C25.964,45.563,25.125,46.402,24.094,46.402z"/>
	<path fill="#5D5D5D" d="M14.301,39.404c-1.715,0-3.11,1.395-3.11,3.11s1.395,3.11,3.11,3.11s3.11-1.395,3.11-3.11
		S16.016,39.404,14.301,39.404z M14.301,44.069c-0.858,0-1.555-0.697-1.555-1.555c0-0.858,0.697-1.555,1.555-1.555
		s1.555,0.697,1.555,1.555C15.856,43.372,15.158,44.069,14.301,44.069z"/>
	<path fill="#5D5D5D" d="M11.191,5.192h3.11c0.43,0,0.778-0.348,0.778-0.778c0-0.43-0.348-0.778-0.778-0.778h-3.11
		c-0.43,0-0.778,0.348-0.778,0.778C10.413,4.845,10.761,5.192,11.191,5.192z"/>
	<path fill="#5D5D5D" d="M16.633,5.192h0.778c0.43,0,0.778-0.348,0.778-0.778c0-0.43-0.348-0.778-0.778-0.778h-0.778
		c-0.43,0-0.778,0.348-0.778,0.778C15.856,4.845,16.203,5.192,16.633,5.192z"/>
</g>
</svg>
