<?xml version="1.0" encoding="utf-8"?>
<!-- Generator: Adobe Illustrator 17.0.0, SVG Export Plug-In . SVG Version: 6.00 Build 0)  -->
<!DOCTYPE svg PUBLIC "-//W3C//DTD SVG 1.1//EN" "http://www.w3.org/Graphics/SVG/1.1/DTD/svg11.dtd">
<svg version="1.1" id="Capa_1" xmlns="http://www.w3.org/2000/svg" xmlns:xlink="http://www.w3.org/1999/xlink" x="0px" y="0px"
	 width="47.5px" height="46px" viewBox="0 0 47.5 46" enable-background="new 0 0 47.5 46" xml:space="preserve">
<path fill="#5D5D5D" d="M28.526,23.602L45.47,6.658c0.954-0.954,0.954-2.501,0-3.455c-0.954-0.954-2.501-0.954-3.455,0
	L24.776,20.441c-0.544,0.544-1.425,0.544-1.969,0L5.568,3.202c-0.954-0.954-2.501-0.954-3.455,0s-0.954,2.501,0,3.455l16.944,16.944
	L2.113,40.546c-0.954,0.954-0.954,2.5,0,3.455c0.954,0.954,2.501,0.954,3.455,0l17.239-17.239c0.544-0.544,1.425-0.544,1.969,0
	l17.239,17.239c0.954,0.954,2.501,0.954,3.455,0c0.954-0.954,0.954-2.5,0-3.455L28.526,23.602z"/>
</svg>
