<?xml version="1.0" encoding="utf-8"?>
<!-- Generator: Adobe Illustrator 17.0.0, SVG Export Plug-In . SVG Version: 6.00 Build 0)  -->
<!DOCTYPE svg PUBLIC "-//W3C//DTD SVG 1.1//EN" "http://www.w3.org/Graphics/SVG/1.1/DTD/svg11.dtd">
<svg version="1.1" id="Capa_1" xmlns="http://www.w3.org/2000/svg" xmlns:xlink="http://www.w3.org/1999/xlink" x="0px" y="0px"
	 width="39px" height="50px" viewBox="0 0 39 50" enable-background="new 0 0 39 50" xml:space="preserve">
<g>
	<path fill="#5D5D5D" d="M19.45,2.639c-4.45,0-8.486,1.811-11.409,4.734c-2.923,2.923-4.734,6.959-4.734,11.409
		c0,1.168,0.118,2.304,0.353,3.4c0.236,1.104,0.588,2.168,1.052,3.186c1.589,3.477,3.745,7.051,5.942,10.303
		c3.596,5.324,7.278,9.747,8.798,11.517c1.216-1.417,3.822-4.54,6.668-8.474c2.867-3.963,5.961-8.731,8.069-13.346
		c0.465-1.018,0.817-2.082,1.054-3.184c0.235-1.096,0.354-2.233,0.354-3.401h0.004c-0.001-4.447-1.814-8.483-4.74-11.409
		c-2.926-2.926-6.962-4.738-11.409-4.738V2.639L19.45,2.639z M6.608,5.941c3.29-3.29,7.832-5.328,12.842-5.328v0.004
		c5.012,0,9.554,2.036,12.842,5.323c3.288,3.287,5.325,7.83,5.326,12.842h0.004c0,1.3-0.134,2.577-0.401,3.821
		c-0.265,1.238-0.665,2.442-1.196,3.604c-2.181,4.772-5.344,9.653-8.267,13.694c-2.909,4.021-5.594,7.232-6.816,8.653
		c-0.186,0.217-0.416,0.389-0.674,0.507c-0.258,0.119-0.537,0.182-0.818,0.182c-0.283,0-0.564-0.063-0.822-0.182
		c-0.255-0.117-0.485-0.29-0.672-0.51l0,0c-1.522-1.77-5.306-6.307-8.981-11.747c-2.24-3.316-4.449-6.983-6.1-10.596
		c-0.53-1.163-0.929-2.368-1.195-3.606c-0.266-1.244-0.401-2.519-0.401-3.819C1.28,13.773,3.318,9.231,6.608,5.941z"/>
	<path fill="#5D5D5D" d="M19.451,5.844c3.451,0,6.576,1.399,8.838,3.661s3.661,5.387,3.661,8.838s-1.399,6.576-3.661,8.838
		s-5.387,3.661-8.838,3.661c-3.451,0-6.576-1.399-8.838-3.661s-3.661-5.386-3.661-8.838s1.399-6.576,3.661-8.838
		S16,5.844,19.451,5.844L19.451,5.844z M26.856,10.938c-1.895-1.895-4.513-3.067-7.405-3.067c-2.892,0-5.51,1.172-7.405,3.067
		c-1.895,1.895-3.067,4.513-3.067,7.405s1.172,5.51,3.067,7.405c1.895,1.895,4.513,3.067,7.405,3.067
		c2.892,0,5.51-1.172,7.405-3.067c1.895-1.895,3.067-4.513,3.067-7.405S28.751,12.833,26.856,10.938z"/>
	<rect x="18.504" y="7.398" fill="#5D5D5D" width="2.026" height="21.683"/>
	<rect x="13.372" y="7.645" fill="#5D5D5D" width="2.026" height="21.188"/>
	<rect x="23.504" y="7.645" fill="#5D5D5D" width="2.026" height="21.188"/>
	<rect x="8.61" y="17.161" fill="#5D5D5D" width="21.683" height="2.026"/>
	<rect x="8.857" y="22.292" fill="#5D5D5D" width="21.188" height="2.026"/>
	<rect x="8.857" y="12.16" fill="#5D5D5D" width="21.188" height="2.026"/>
</g>
</svg>
