<?xml version="1.0" encoding="utf-8"?>
<!-- Generator: Adobe Illustrator 17.0.0, SVG Export Plug-In . SVG Version: 6.00 Build 0)  -->
<!DOCTYPE svg PUBLIC "-//W3C//DTD SVG 1.1//EN" "http://www.w3.org/Graphics/SVG/1.1/DTD/svg11.dtd">
<svg version="1.1" id="Capa_1" xmlns="http://www.w3.org/2000/svg" xmlns:xlink="http://www.w3.org/1999/xlink" x="0px" y="0px"
	 width="50px" height="50px" viewBox="0 0 50 50" enable-background="new 0 0 50 50" xml:space="preserve">
<g>
	<circle fill="#5D5D5D" cx="16.257" cy="23.077" r="4.182"/>
	<g>
		<path fill="#5D5D5D" d="M3.96,19.805l0.893-0.245v-6.693c0-0.573,0.464-1.038,1.037-1.038h27.13l8.043-2.207
			c0.55-0.151,1.128,0.172,1.268,0.725l0.377,1.482h1.912c0.573,0,1.037,0.465,1.037,1.038v10.658l1.697,6.729
			c0.144,0.572-0.235,1.112-0.803,1.268l-0.893,0.245v1.851c0,0.573-0.465,1.038-1.037,1.038h-2.024l-0.227,3.354
			c-0.04,0.586-0.544,0.997-1.127,0.963l-17.946-1.068L9.447,41.704c-0.55,0.151-1.129-0.172-1.268-0.725l-1.596-6.324H5.891
			c-0.573,0-1.037-0.464-1.037-1.038v-5.82l-1.697-6.724C3.012,20.5,3.392,19.961,3.96,19.805L3.96,19.805z M26.292,16.498h13.832
			v2.075H26.292V16.498L26.292,16.498z M26.292,27.911h10.893v2.075H26.292V27.911L26.292,27.911z M26.292,24.107h13.832v2.075
			H26.292V24.107L26.292,24.107z M26.292,20.302h13.832v2.075H26.292V20.302L26.292,20.302z M40.519,34.655h-5.387l-5.626,1.544
			l10.865,0.647L40.519,34.655L40.519,34.655z M27.324,34.655H8.718l1.204,4.776L27.324,34.655L27.324,34.655z M43.582,13.905H6.928
			V32.58h36.654V13.905L43.582,13.905z"/>
	</g>
</g>
</svg>
