<?xml version="1.0" encoding="utf-8"?>
<!-- Generator: Adobe Illustrator 17.0.0, SVG Export Plug-In . SVG Version: 6.00 Build 0)  -->
<!DOCTYPE svg PUBLIC "-//W3C//DTD SVG 1.1//EN" "http://www.w3.org/Graphics/SVG/1.1/DTD/svg11.dtd">
<svg version="1.1" id="Capa_1" xmlns="http://www.w3.org/2000/svg" xmlns:xlink="http://www.w3.org/1999/xlink" x="0px" y="0px"
	 width="50px" height="50px" viewBox="0 0 50 50" enable-background="new 0 0 50 50" xml:space="preserve">
<g>
	<g>
		<polygon fill="#5D5D5D" points="22.332,38.738 5.812,38.738 4.894,38.738 4.894,37.82 4.894,2.918 4.894,2 5.812,2 33.366,2 
			34.284,2 34.284,2.918 34.284,31.391 32.447,31.391 32.447,3.837 6.731,3.837 6.731,36.901 22.332,36.901 		"/>
		<rect x="9.486" y="7.97" fill="#5D5D5D" width="20.206" height="1.837"/>
		<rect x="9.486" y="13.71" fill="#5D5D5D" width="20.206" height="1.837"/>
		<rect x="9.486" y="19.451" fill="#5D5D5D" width="20.206" height="1.837"/>
		<rect x="9.486" y="25.191" fill="#5D5D5D" width="20.206" height="1.837"/>
		<path fill="#5D5D5D" d="M22.332,30.472H47.13h0.918v0.919v13.777v0.918H47.13H22.332h-0.918v-0.918V31.391v-0.919H22.332
			L22.332,30.472z M46.212,32.309H23.25v11.94h22.961V32.309z"/>
		<polygon fill="#5D5D5D" points="22.823,30.619 34.725,38.204 46.954,30.612 47.922,32.169 35.205,40.064 34.717,40.368 
			34.229,40.057 21.84,32.162 		"/>
	</g>
</g>
</svg>
