<?xml version="1.0" encoding="utf-8"?>
<!-- Generator: Adobe Illustrator 17.0.0, SVG Export Plug-In . SVG Version: 6.00 Build 0)  -->
<!DOCTYPE svg PUBLIC "-//W3C//DTD SVG 1.1//EN" "http://www.w3.org/Graphics/SVG/1.1/DTD/svg11.dtd">
<svg version="1.1" id="Capa_1" xmlns="http://www.w3.org/2000/svg" xmlns:xlink="http://www.w3.org/1999/xlink" x="0px" y="0px"
	 width="30.167px" height="50px" viewBox="0 0 30.167 50" enable-background="new 0 0 30.167 50" xml:space="preserve">
<g>
	<g>
		<path fill="#000" d="M28.369,0.695l-7.216,0.003c0,0-0.146-0.011-0.409-0.011c-1.48,0-8.969,0.412-11.006,8.441
			C9.706,9.216,9.02,11.226,9.009,15.9H2.164c-0.607,0-1.1,0.493-1.1,1.1v6.308c0,0.607,0.493,1.1,1.1,1.1h7.487v22.654
			c0,0.607,0.493,1.1,1.1,1.1h8.572c0.607,0,1.1-0.493,1.1-1.1V24.431h7.511c0.608,0,1.1-0.493,1.1-1.1V17
			c0-0.607-0.493-1.1-1.1-1.1h-7.495v-2.707c0-1.803,1.144-3.729,4.356-3.729h3.574c0.607,0,1.1-0.493,1.1-1.1V1.795
			C29.469,1.188,28.977,0.695,28.369,0.695L28.369,0.695z"/>
	</g>
</g>
</svg>
