<?xml version="1.0" encoding="utf-8"?>
<!-- Generator: Adobe Illustrator 17.0.0, SVG Export Plug-In . SVG Version: 6.00 Build 0)  -->
<!DOCTYPE svg PUBLIC "-//W3C//DTD SVG 1.1//EN" "http://www.w3.org/Graphics/SVG/1.1/DTD/svg11.dtd">
<svg version="1.1" id="Capa_1" xmlns="http://www.w3.org/2000/svg" xmlns:xlink="http://www.w3.org/1999/xlink" x="0px" y="0px"
	 width="37.667px" height="50px" viewBox="0 0 37.667 50" enable-background="new 0 0 37.667 50" xml:space="preserve">
<path fill="#5D5D5D" d="M1.161,20.108C0.807,15.271,2.346,10.353,5.87,6.635c0.557-0.588,1.155-1.138,1.783-1.65
	c4.036-3.288,8.69-4.607,13.879-3.919c2.774,0.368,5.335,1.337,7.623,2.93c6.679,4.652,9.654,13.317,6.839,21.015
	c-0.588,1.607-1.411,3.121-2.401,4.515c-4.324,6.089-8.644,12.183-12.957,18.28c-0.328,0.464-0.674,0.887-1.203,1.126
	c-0.25,0-0.501,0-0.751,0c-0.4-0.376-0.876-0.698-1.189-1.136c-4.318-6.056-8.608-12.131-12.917-18.194
	C2.554,26.758,1.406,23.452,1.161,20.108z M19.085,12.892c-3.3-0.015-6.01,2.665-6.032,5.967c-0.022,3.299,2.654,6.015,5.955,6.044
	c3.318,0.029,6.047-2.67,6.056-5.99C25.072,15.613,22.385,12.907,19.085,12.892z"/>
</svg>
