<?xml version="1.0" encoding="utf-8"?>
<!-- Generator: Adobe Illustrator 17.0.0, SVG Export Plug-In . SVG Version: 6.00 Build 0)  -->
<!DOCTYPE svg PUBLIC "-//W3C//DTD SVG 1.1//EN" "http://www.w3.org/Graphics/SVG/1.1/DTD/svg11.dtd">
<svg version="1.1" id="Capa_1" xmlns="http://www.w3.org/2000/svg" xmlns:xlink="http://www.w3.org/1999/xlink" x="0px" y="0px"
	 width="50px" height="50px" viewBox="0 0 50 50" enable-background="new 0 0 50 50" xml:space="preserve">
<g>
	<g>
		<path fill="#000" d="M2.063,32.682c0-5.227,0-10.453,0-15.68c0.128-1.306,0.225-2.615,0.388-3.916
			C3.143,7.584,6.783,3.603,12.209,2.52c1.615-0.323,3.28-0.398,4.922-0.586c5.227,0,10.453,0,15.68,0
			c1.343,0.131,2.691,0.226,4.029,0.399c5.419,0.702,9.394,4.378,10.455,9.756c0.318,1.613,0.397,3.274,0.585,4.913
			c0,5.227,0,10.453,0,15.68c-0.131,1.34-0.228,2.684-0.399,4.019c-0.693,5.413-4.384,9.411-9.748,10.464
			c-1.617,0.317-3.28,0.397-4.922,0.585c-5.227,0-10.453,0-15.68,0c-1.309-0.129-2.622-0.227-3.927-0.391
			c-5.497-0.693-9.477-4.339-10.558-9.766C2.326,35.981,2.251,34.32,2.063,32.682z M43.599,24.895c0-3.29,0.076-6.581-0.017-9.868
			c-0.152-5.351-3.443-8.698-8.791-8.787c-6.543-0.108-13.091-0.108-19.634,0C9.805,6.328,6.459,9.671,6.37,15.021
			c-0.109,6.543-0.108,13.091-0.001,19.634c0.088,5.351,3.433,8.699,8.782,8.788c6.543,0.109,13.091,0.108,19.635,0.001
			c5.35-0.088,8.642-3.433,8.795-8.783C43.674,31.408,43.598,28.15,43.599,24.895z"/>
		<path fill="#000" d="M25.006,13.108c6.524,0.013,11.723,5.254,11.699,11.794c-0.023,6.52-5.273,11.705-11.819,11.674
			c-6.473-0.031-11.653-5.254-11.649-11.744C13.241,18.304,18.471,13.095,25.006,13.108z M25.018,17.211
			c-4.255-0.007-7.666,3.351-7.678,7.558c-0.011,4.265,3.337,7.689,7.533,7.704c4.317,0.015,7.726-3.342,7.729-7.611
			C32.605,20.616,29.237,17.218,25.018,17.211z"/>
	</g>
	<path fill="#000" d="M37.246,9.873c1.477,0.029,2.71,1.294,2.696,2.766c-0.014,1.469-1.28,2.727-2.742,2.725
		c-1.502-0.002-2.799-1.333-2.749-2.823C34.5,11.066,35.78,9.844,37.246,9.873z"/>
</g>
</svg>
