<?xml version="1.0" encoding="utf-8"?>
<!-- Generator: Adobe Illustrator 17.0.0, SVG Export Plug-In . SVG Version: 6.00 Build 0)  -->
<!DOCTYPE svg PUBLIC "-//W3C//DTD SVG 1.1//EN" "http://www.w3.org/Graphics/SVG/1.1/DTD/svg11.dtd">
<svg version="1.1" id="Capa_1" xmlns="http://www.w3.org/2000/svg" xmlns:xlink="http://www.w3.org/1999/xlink" x="0px" y="0px"
	 width="50px" height="50px" viewBox="0 0 50 50" enable-background="new 0 0 50 50" xml:space="preserve">
<path fill="#5D5D5D" d="M48.277,44.067L35.573,31.368c2.477-3.195,4.006-7.158,4.006-11.506c0-10.455-8.511-18.948-18.955-18.948
	c-10.437,0-18.933,8.493-18.933,18.948c0,10.444,8.496,18.942,18.933,18.942c4.347,0,8.313-1.532,11.514-3.999l12.712,12.699
	L48.277,44.067z M6.554,19.862c0-7.765,6.312-14.08,14.07-14.08c7.77,0,14.092,6.315,14.092,14.08s-6.322,14.074-14.092,14.074
	C12.866,33.936,6.554,27.627,6.554,19.862z"/>
</svg>
