<?xml version="1.0" encoding="utf-8"?>
<!-- Generator: Adobe Illustrator 17.0.0, SVG Export Plug-In . SVG Version: 6.00 Build 0)  -->
<!DOCTYPE svg PUBLIC "-//W3C//DTD SVG 1.1//EN" "http://www.w3.org/Graphics/SVG/1.1/DTD/svg11.dtd">
<svg version="1.1" id="Capa_1" xmlns="http://www.w3.org/2000/svg" xmlns:xlink="http://www.w3.org/1999/xlink" x="0px" y="0px"
	 width="50px" height="50px" viewBox="0 0 50 50" enable-background="new 0 0 50 50" xml:space="preserve">
<g>
	<path fill="#5D5D5D" d="M18.448,8.527c0,1.034-0.838,1.872-1.872,1.872c-1.034,0-1.872-0.838-1.872-1.872V4.383
		c0-1.843,1.529-3.344,3.37-3.344h13.852c1.841,0,3.37,1.501,3.37,3.344v4.144c0,1.034-0.838,1.872-1.872,1.872
		c-1.034,0-1.872-0.838-1.872-1.872V4.783H18.448V8.527L18.448,8.527z"/>
	<path fill-rule="evenodd" clip-rule="evenodd" fill="#5D5D5D" d="M36.793,44.718h2.995V16.015h-2.995V44.718L36.793,44.718z
		 M13.207,36.607l-2.995-2.995v11.106h2.995V36.607L13.207,36.607z M10.212,25.677l2.995-2.995v-6.667h-2.995V25.677L10.212,25.677z
		 M9.837,46.964v0.873c0,0.619,0.505,1.123,1.123,1.123h1.498c0.619,0,1.123-0.505,1.123-1.123v-0.873h22.838v0.873
		c0,0.619,0.505,1.123,1.123,1.123h1.498c0.619,0,1.123-0.505,1.123-1.123v-0.873h3.557c2.883,0,5.241-2.359,5.241-5.241V19.01
		c0-2.883-2.359-5.241-5.241-5.241h-8.424c0-1.034-0.838-1.872-1.872-1.872c-1.034,0-1.872,0.838-1.872,1.872H18.448
		c0-1.034-0.838-1.872-1.872-1.872c-1.034,0-1.872,0.838-1.872,1.872H6.281c-2.883,0-5.242,2.359-5.242,5.241v22.712
		c0,2.883,2.358,5.241,5.242,5.241H9.837L9.837,46.964z M23.029,24.046c-0.401,0.377-1.031,0.358-1.408-0.043
		c-0.377-0.401-0.358-1.031,0.043-1.408c0.552-0.521,1.042-1.069,1.471-1.643c-0.868-0.289-1.863-0.087-2.554,0.603
		c-0.975,0.975-0.975,2.555,0,3.53c0.975,0.975,2.555,0.975,3.53,0c0.756-0.756,0.925-1.875,0.51-2.794
		C24.15,22.903,23.62,23.488,23.029,24.046L23.029,24.046z M27.33,16.015h-2.028c-0.214,1.101-0.562,2.154-1.062,3.152l-0.372-0.372
		l-3.599,0.002L9.421,29.645l6.605,6.604l10.849-10.848l-0.003-3.604l-1.156-1.156C26.527,19.201,27.054,17.652,27.33,16.015
		L27.33,16.015z"/>
</g>
</svg>
