<?xml version="1.0" encoding="utf-8"?>
<!-- Generator: Adobe Illustrator 17.0.0, SVG Export Plug-In . SVG Version: 6.00 Build 0)  -->
<!DOCTYPE svg PUBLIC "-//W3C//DTD SVG 1.1//EN" "http://www.w3.org/Graphics/SVG/1.1/DTD/svg11.dtd">
<svg version="1.1" id="Capa_1" xmlns="http://www.w3.org/2000/svg" xmlns:xlink="http://www.w3.org/1999/xlink" x="0px" y="0px"
	 width="33.5px" height="50px" viewBox="0 0 33.5 50" enable-background="new 0 0 33.5 50" xml:space="preserve">
<g>
	<g>
		<g>
			<path fill="#5D5D5D" d="M15.822,26.877v-0.894c0-0.541,0.439-0.98,0.98-0.98c0.541,0,0.98,0.439,0.98,0.98v0.892
				c3.609-0.431,6.502-3.15,7.053-6.823l2.007-13.623c-1.053-0.653-2.297-1.027-3.628-1.027h-3.562
				c-0.194-1.468-0.815-3.92-2.852-3.92s-2.658,2.452-2.852,3.92h-3.562c-1.374,0-2.652,0.408-3.726,1.102l2.107,13.545
				C9.32,23.727,12.219,26.45,15.822,26.877z M16.802,3.442c0.316,0,0.682,0.894,0.868,1.96h-1.735
				C16.12,4.335,16.486,3.442,16.802,3.442z"/>
			<path fill="#5D5D5D" d="M32.64,38.867l-2.595-27.256c-0.131-1.37-0.659-2.603-1.452-3.609L26.773,20.34
				c-0.698,4.646-4.41,8.06-8.991,8.497v3.027c0,0.541-0.439,0.98-0.98,0.98c-0.541,0-0.98-0.439-0.98-0.98v-3.028
				c-4.589-0.441-8.295-3.852-8.991-8.491L4.927,8.099c-0.751,0.986-1.241,2.189-1.368,3.513L0.964,38.867
				c-0.235,2.468,0.586,4.938,2.254,6.77c1.266,1.394,2.944,2.329,4.763,2.701v-6.674c0-2.701,2.199-4.9,4.9-4.9h7.841
				c2.701,0,4.9,2.199,4.9,4.9v6.674c1.819-0.372,3.497-1.307,4.763-2.701C32.054,43.803,32.877,41.335,32.64,38.867z"/>
			<path fill="#5D5D5D" d="M20.722,38.724h-7.841c-1.621,0-2.94,1.319-2.94,2.94v6.861h13.721v-6.861
				C23.663,40.044,22.343,38.724,20.722,38.724z"/>
		</g>
	</g>
</g>
</svg>
