<?xml version="1.0" encoding="utf-8"?>
<!-- Generator: Adobe Illustrator 17.0.0, SVG Export Plug-In . SVG Version: 6.00 Build 0)  -->
<!DOCTYPE svg PUBLIC "-//W3C//DTD SVG 1.1//EN" "http://www.w3.org/Graphics/SVG/1.1/DTD/svg11.dtd">
<svg version="1.1" id="Capa_1" xmlns="http://www.w3.org/2000/svg" xmlns:xlink="http://www.w3.org/1999/xlink" x="0px" y="0px"
	 width="25.5px" height="50px" viewBox="0 0 25.5 50" enable-background="new 0 0 25.5 50" xml:space="preserve">
<g>
	<g>
		<g>
			<path fill="#5D5D5D" d="M23.641,20.132c0.39,0,0.705-0.316,0.705-0.705v-2.372c0-1.248-1.015-2.263-2.263-2.263h-3.968V5.298
				h0.853c0.39,0,0.705-0.316,0.705-0.705V1.478c0-0.389-0.316-0.705-0.705-0.705H6.507c-0.39,0-0.705,0.316-0.705,0.705v3.115
				c0,0.39,0.316,0.705,0.705,0.705h0.852v9.494H3.391c-1.248,0-2.263,1.015-2.263,2.263v26.481c0,1.001,0.654,1.853,1.558,2.15
				v2.523c0,0.39,0.316,0.705,0.705,0.705h3.115c0.39,0,0.705-0.316,0.705-0.705v-2.41h11.051v2.41c0,0.39,0.316,0.705,0.705,0.705
				h3.115c0.39,0,0.705-0.316,0.705-0.705v-2.523c0.903-0.297,1.558-1.148,1.558-2.15V22.244c0-0.39-0.316-0.705-0.705-0.705
				s-0.705,0.316-0.705,0.705v21.292c0,0.468-0.379,0.849-0.847,0.852l-0.005,0h-3.115l-0.011,0.001H6.517l-0.011-0.001H3.391
				l-0.005,0c-0.467-0.003-0.847-0.384-0.847-0.852V17.055c0-0.47,0.382-0.852,0.852-0.852h2.41v1.195l-1.168,0.584
				c-0.239,0.12-0.39,0.364-0.39,0.631v6.231c0,0.39,0.316,0.705,0.705,0.705h3.115c0.39,0,0.705-0.316,0.705-0.705v-6.231
				c0-0.267-0.151-0.511-0.39-0.631l-1.168-0.584v-1.195h14.872c0.47,0,0.852,0.382,0.852,0.852v2.372
				C22.936,19.816,23.252,20.132,23.641,20.132z M19.673,45.799h1.705v1.704h-1.705V45.799z M4.096,45.799h1.705v1.704H4.096V45.799
				z M7.359,19.048v5.09H5.654v-5.09l0.852-0.426L7.359,19.048z M7.212,3.888V2.183h4.82v0.074c0,0.389,0.316,0.705,0.705,0.705
				c0.39,0,0.705-0.316,0.705-0.705V2.183h4.82v1.705L7.212,3.888z M16.705,14.792H8.769V5.298h7.936V14.792z"/>
		</g>
	</g>
	<g>
		<g>
			<path fill="#5D5D5D" d="M15.439,22.787l-2.203-2.203c-0.275-0.275-0.722-0.275-0.997,0l-2.203,2.203
				c-0.132,0.132-0.206,0.312-0.206,0.499c0,0.187,0.074,0.366,0.207,0.499l2.203,2.203c0.138,0.138,0.318,0.206,0.499,0.206
				c0.18,0,0.361-0.069,0.499-0.206l2.203-2.203c0.132-0.132,0.207-0.312,0.207-0.499C15.645,23.099,15.571,22.919,15.439,22.787z
				 M12.737,24.491l-1.206-1.205l1.206-1.206l1.206,1.206L12.737,24.491z"/>
		</g>
	</g>
	<g>
		<g>
			<path fill="#5D5D5D" d="M20.526,30.369H4.949c-0.39,0-0.705,0.316-0.705,0.705v3.114l0,0.001c0,0.001,0,0.002,0,0.002v7.787
				c0,0.39,0.316,0.705,0.705,0.705h15.577c0.39,0,0.705-0.316,0.705-0.705V31.074C21.231,30.685,20.915,30.369,20.526,30.369z
				 M19.821,41.273H5.654v-6.378h1.705v0.852c0,0.39,0.316,0.705,0.705,0.705c0.39,0,0.705-0.316,0.705-0.705v-0.852h11.051
				L19.821,41.273L19.821,41.273z M19.821,33.484H5.654v-1.705h14.167L19.821,33.484L19.821,33.484z"/>
		</g>
	</g>
</g>
</svg>
