<?xml version="1.0" encoding="utf-8"?>
<!-- Generator: Adobe Illustrator 17.0.0, SVG Export Plug-In . SVG Version: 6.00 Build 0)  -->
<!DOCTYPE svg PUBLIC "-//W3C//DTD SVG 1.1//EN" "http://www.w3.org/Graphics/SVG/1.1/DTD/svg11.dtd">
<svg version="1.1" id="Capa_1" xmlns="http://www.w3.org/2000/svg" xmlns:xlink="http://www.w3.org/1999/xlink" x="0px" y="0px"
	 width="50px" height="50px" viewBox="0 0 50 50" enable-background="new 0 0 50 50" xml:space="preserve">
<g>
	<path fill="#5D5D5D" d="M21.026,36.598l-1.682,7.405c-0.066,1.299-1.173,2.298-2.473,2.232c-1.3-0.066-2.299-1.173-2.233-2.472
		l1.562-12.206l-0.013-3.744l-0.443-0.576l7.985-8.573l0.28,0.207l0.322,0.007c1.948,0.032,7.087,0.073,8.473,0.125
		c3.681,0.139,2.796,0.358,6.519,0.703c1.213-1.289,2.347-2.15,3.366-3.394c0.313-0.381,0.908-0.403,1.327-0.048
		c0.42,0.354,0.506,0.951,0.192,1.332c-1.011,1.234-1.636,2.514-2.65,3.947c0.583,1.652,0.993,3.325,1.276,5.011h0.001
		c0.256,1.532,0.405,3.063,0.482,4.592c0.018,0.351,0.116,0.657,0.312,0.97l2.94,4.696c0.203,0.326,0.325,0.672,0.371,1.015
		l1.28,7.102c0.252,1.294-0.583,2.434-1.865,2.546c-1.282,0.112-2.527-0.846-2.779-2.14l-1.685-6.764l-2.94-3.779
		c-0.44-0.565-1.079-0.886-1.749-0.828l-7.922,0.686c-0.879,0.076-1.535,0.694-1.578,1.574l-0.44,9.029
		c0.074,1.299-0.925,2.298-2.231,2.232c-1.307-0.066-2.426-1.173-2.501-2.472l-0.173-9.527V34.24c-0.401,0-0.947-0.069-1.534-0.285
		c-0.445-0.164-0.91-0.413-1.349-0.78c-0.528-0.442-1.315-0.372-1.757,0.156c-0.442,0.528-0.372,1.315,0.156,1.756
		c0.68,0.57,1.402,0.955,2.091,1.21C20.329,36.431,20.687,36.529,21.026,36.598L21.026,36.598z M39.828,40.63l0.302,3.051
		c0.112,1.294-0.846,2.434-2.141,2.546c-1.294,0.112-2.435-0.846-2.547-2.14l-1.02-5.514l-1.177-1.758l3.854-0.334l2.495,3.207
		L39.828,40.63L39.828,40.63z M12.659,23.233l-0.679-0.882c-2.497,0.67-5.54,1.368-6.853,1.746
		c-0.536,0.154-1.074,0.015-1.469-0.379l-1.585-1.584c-0.308-0.308-0.456-0.69-0.436-1.125c0.02-0.435,0.251-0.752,0.539-1.079
		c1.686-1.919,5.681-6.336,7.864-7.373c0.208-0.099,0.417-0.202,0.627-0.302l2.094-3.458c0.237-0.394,0.749-0.52,1.142-0.283
		c0.26,0.157,0.404,0.433,0.403,0.716l0.12,2.344l2.362-2.43c0.32-0.329,0.846-0.336,1.175-0.016
		c0.204,0.199,0.284,0.477,0.239,0.738l-0.737,4.16l2.231,1.653L12.659,23.233L12.659,23.233z"/>
	<path fill="#5D5D5D" d="M37.267,1.692L23.192,16.803l-1.217-1.132l13.02-13.979H37.267L37.267,1.692z M13.207,24.474l7.592-8.151
		l1.825,1.698l-7.592,8.151L13.207,24.474L13.207,24.474z"/>
</g>
</svg>
