<?xml version="1.0" encoding="utf-8"?>
<!-- Generator: Adobe Illustrator 17.0.0, SVG Export Plug-In . SVG Version: 6.00 Build 0)  -->
<!DOCTYPE svg PUBLIC "-//W3C//DTD SVG 1.1//EN" "http://www.w3.org/Graphics/SVG/1.1/DTD/svg11.dtd">
<svg version="1.1" id="Capa_1" xmlns="http://www.w3.org/2000/svg" xmlns:xlink="http://www.w3.org/1999/xlink" x="0px" y="0px"
	 width="44.25px" height="50px" viewBox="0 0 44.25 50" enable-background="new 0 0 44.25 50" xml:space="preserve">
<g>
	<path fill="#5D5D5D" d="M21.358,17.567l7.455,12.187c1.022,1.67-1.456,3.255-2.606,1.52l-4.304-6.493l2.809,13.565h-3.235
		l0.264,8.577c0.053,1.932-2.872,2.074-3.013,0.152l-0.824-8.728h-1.381l-0.638,8.723c-0.14,1.973-3.157,1.761-3.017-0.212
		l0.264-8.512H9.894l2.865-14.2v-0.338l-1.783,2.221c-0.583,0.727-1.625,0.706-2.302,0.076l-5.916-5.506
		c-1.437-1.338,0.568-3.492,2.03-2.223l4.759,4.13l3.685-5.038C15.047,14.987,19.721,14.892,21.358,17.567L21.358,17.567z M17.303,2
		c3.149,0,5.737,2.39,6.03,5.445c2.024-0.089,2.995,1.22,3.28,3.718c0.246,2.16,0.015,3.891,0.671,5.03
		c0.041,0.072,0.032,0.159-0.024,0.22c-0.056,0.061-0.143,0.079-0.218,0.045c-1.693-0.763-2.565-1.519-2.844-2.708
		c-0.406-1.729-0.006-4.242-0.859-5.212c-0.262,3.086-2.864,5.509-6.035,5.509c-3.171,0-5.773-2.423-6.035-5.509
		c-0.853,0.97-0.453,3.484-0.859,5.213c-0.279,1.188-1.151,1.945-2.844,2.708c-0.075,0.034-0.162,0.017-0.218-0.044
		c-0.056-0.061-0.065-0.149-0.024-0.22c0.655-1.138,0.425-2.869,0.671-5.03c0.284-2.498,1.256-3.807,3.28-3.718
		C11.566,4.39,14.153,2,17.303,2L17.303,2z"/>
	<path fill-rule="evenodd" clip-rule="evenodd" fill="#5D5D5D" d="M36.474,37.435c0.011,0.012,0.022,0.025,0.033,0.038
		c0.594,0.714,1.109,1.455,1.521,2.229c0.418,0.784,0.727,1.603,0.902,2.463c0.123,0.609-0.275,1.202-0.887,1.323
		c-0.613,0.122-1.208-0.273-1.331-0.882c-0.128-0.626-0.364-1.244-0.689-1.854c-0.157-0.295-0.337-0.589-0.536-0.881l-0.642,1.2
		c-0.156,0.291-0.352,0.547-0.58,0.763c0.084,0.731,0.114,1.452,0.081,2.161c-0.04,0.884-0.176,1.738-0.421,2.556
		c-0.179,0.597-0.811,0.937-1.411,0.759c-0.6-0.178-0.942-0.806-0.763-1.403c0.194-0.647,0.301-1.318,0.332-2.009
		c0.018-0.4,0.012-0.81-0.018-1.23c-0.446-0.015-0.895-0.128-1.315-0.35c-0.469-0.248-0.846-0.601-1.117-1.015
		c-0.296,0.13-0.583,0.291-0.861,0.49c-0.528,0.378-1.033,0.901-1.509,1.612c-0.346,0.519-1.049,0.661-1.571,0.318
		c-0.522-0.344-0.665-1.043-0.319-1.562c0.634-0.946,1.331-1.659,2.077-2.194c0.566-0.406,1.152-0.704,1.754-0.918
		c0.057-0.273,0.153-0.542,0.291-0.801l0.925-1.73c-0.564-0.646-1.049-1.295-1.446-1.949c-0.229-0.377-0.431-0.759-0.606-1.146
		c0.25-0.072,0.495-0.178,0.727-0.319c0.488-0.296,0.862-0.711,1.107-1.185c0.174,0.495,0.414,0.99,0.715,1.485
		c0.268,0.442,0.579,0.877,0.93,1.306c0.335-0.207,0.707-0.347,1.093-0.412c-0.716-1.108-0.825-2.558-0.159-3.804
		c0.01-0.018,0.02-0.036,0.03-0.054c-0.429-0.495-0.688-1.138-0.688-1.843c0-1.559,1.271-2.823,2.839-2.823
		c1.568,0,2.839,1.264,2.839,2.823c0,0.095-0.005,0.19-0.014,0.283c0.076,0.037,0.149,0.075,0.222,0.117
		c0.492-0.408,1.126-0.654,1.817-0.654c1.568,0,2.839,1.264,2.839,2.823c0,1.559-1.271,2.823-2.839,2.823
		c-0.111,0-0.221-0.007-0.33-0.019c-0.01,0.019-0.02,0.039-0.03,0.058c-0.666,1.246-1.936,1.967-3.261,1.997
		C36.409,36.464,36.502,36.948,36.474,37.435L36.474,37.435z M39.172,30.022c0.525,0.707,0.787,1.58,0.736,2.459
		c0.696-0.04,1.247-0.614,1.247-1.315c0-0.728-0.593-1.318-1.325-1.318C39.591,29.848,39.366,29.911,39.172,30.022L39.172,30.022z
		 M33.827,29.27c0.703-0.534,1.577-0.808,2.46-0.771c-0.05-0.682-0.623-1.219-1.321-1.219c-0.732,0-1.325,0.59-1.325,1.317
		C33.641,28.843,33.709,29.073,33.827,29.27L33.827,29.27z M36.308,31.911c0.738,0.39,1.019,1.302,0.626,2.036
		c-0.393,0.734-1.31,1.013-2.048,0.622c-0.738-0.39-1.019-1.302-0.626-2.036C34.653,31.799,35.57,31.52,36.308,31.911L36.308,31.911
		z"/>
</g>
</svg>
