<?xml version="1.0" encoding="utf-8"?>
<!-- Generator: Adobe Illustrator 17.0.0, SVG Export Plug-In . SVG Version: 6.00 Build 0)  -->
<!DOCTYPE svg PUBLIC "-//W3C//DTD SVG 1.1//EN" "http://www.w3.org/Graphics/SVG/1.1/DTD/svg11.dtd">
<svg version="1.1" id="Capa_1" xmlns="http://www.w3.org/2000/svg" xmlns:xlink="http://www.w3.org/1999/xlink" x="0px" y="0px"
	 width="44.333px" height="50px" viewBox="0 0 44.333 50" enable-background="new 0 0 44.333 50" xml:space="preserve">
<g>
	<g>
		<g>
			<path fill="#5D5D5D" d="M4.415,22.762c0,0.244,0.099,0.484,0.272,0.657c0.173,0.173,0.412,0.272,0.657,0.272
				c0.245,0,0.485-0.099,0.657-0.272c0.174-0.173,0.273-0.412,0.273-0.657s-0.099-0.484-0.273-0.657
				c-0.173-0.173-0.411-0.272-0.657-0.272c-0.244,0-0.483,0.099-0.657,0.272C4.515,22.278,4.415,22.518,4.415,22.762z"/>
		</g>
	</g>
	<g>
		<path fill="#5D5D5D" d="M0.979,6.275l2.76,13.317c0.104,0.502,0.596,0.825,1.098,0.721c0.502-0.104,0.825-0.596,0.721-1.098
			L2.798,5.898c-0.13-0.626-0.008-1.265,0.343-1.8c0.351-0.534,0.889-0.9,1.515-1.03c0.626-0.13,1.265-0.008,1.8,0.343
			c0.534,0.351,0.9,0.889,1.03,1.515l5.083,24.529c0.445,2.145,2.357,3.701,4.547,3.701H30.32c1.295,0,2.368,1.053,2.393,2.347
			c0.012,0.629-0.231,1.23-0.684,1.692c-0.467,0.476-1.114,0.749-1.775,0.749H11.388c-1.129,0-2.115-0.802-2.344-1.908l-4.455-21.6
			c-0.104-0.502-0.596-0.825-1.098-0.721c-0.502,0.104-0.825,0.596-0.721,1.098l4.455,21.6c0.407,1.963,2.157,3.388,4.163,3.388
			h4.656l-3.176,7.626c-0.119,0.287-0.088,0.614,0.085,0.872c0.172,0.258,0.462,0.413,0.773,0.413h14.328
			c0.31,0,0.601-0.155,0.773-0.413c0.172-0.258,0.204-0.586,0.085-0.872l-3.176-7.626h4.521c1.156,0,2.287-0.476,3.101-1.305
			c0.045-0.046,0.088-0.093,0.131-0.14l2.154,8.269c0.32,1.229,1.431,2.088,2.702,2.088h2.157c0.871,0,1.677-0.395,2.209-1.085
			c0.533-0.689,0.712-1.568,0.493-2.411l-3.473-13.58c-0.129-0.496-0.636-0.794-1.133-0.665c-0.496,0.129-0.794,0.636-0.665,1.133
			l3.473,13.58c0.073,0.282,0.013,0.576-0.165,0.807c-0.178,0.231-0.448,0.363-0.74,0.363h-2.157c-0.425,0-0.797-0.287-0.904-0.699
			l-2.845-10.919c-0.012-0.046-0.028-0.089-0.046-0.131c-0.225-2.13-2.049-3.807-4.227-3.807H17.116
			c-1.314,0-2.462-0.934-2.728-2.221L12.06,17.843c-0.001-0.007-0.002-0.014-0.003-0.021c-0.22-1.061-0.013-2.143,0.581-3.049
			c0.595-0.905,1.506-1.525,2.567-1.745c1.06-0.22,2.143-0.013,3.048,0.581c0.905,0.595,1.525,1.506,1.745,2.567l0.204,1.017
			l-0.929-0.934c-0.362-0.364-0.95-0.365-1.313-0.004c-0.364,0.362-0.365,0.95-0.004,1.314l5.316,5.347
			c0.174,0.175,0.411,0.274,0.659,0.274h7.636c0.633,0,1.148,0.515,1.148,1.148c0,0.633-0.515,1.148-1.148,1.148h-9.688
			l-4.429-4.475c-0.361-0.365-0.949-0.368-1.313-0.007c-0.365,0.361-0.368,0.949-0.007,1.313l4.702,4.75
			c0.174,0.176,0.412,0.275,0.66,0.275h13.606c0.9,0,1.687,0.608,1.914,1.48l1.096,4.207c0.109,0.418,0.486,0.695,0.898,0.695
			c0.078,0,0.156-0.01,0.235-0.03c0.496-0.129,0.794-0.636,0.665-1.133l-1.096-4.207c-0.44-1.689-1.966-2.869-3.712-2.869h-0.753
			c0.147-0.354,0.228-0.741,0.228-1.148c0-1.657-1.348-3.005-3.005-3.005h-7.25l-1.741-1.751l-0.758-3.775
			c-0.322-1.552-1.225-2.881-2.545-3.748c-0.354-0.233-0.728-0.423-1.113-0.573c1.049-0.981,1.706-2.376,1.706-3.922V6.755
			c0-2.963-2.41-5.373-5.373-5.373c-2.359,0-4.366,1.528-5.087,3.646L9.305,4.55c-0.23-1.112-0.88-2.068-1.829-2.691
			C6.527,1.236,5.391,1.02,4.28,1.25C3.168,1.48,2.212,2.13,1.589,3.079C0.965,4.028,0.749,5.163,0.979,6.275z M23.721,39.802
			l2.938,7.054H15.118l2.938-7.054H23.721z M10.975,7.563V6.754c0-1.939,1.577-3.516,3.516-3.516c1.939,0,3.516,1.577,3.516,3.516
			v0.808c0,1.939-1.577,3.516-3.516,3.516S10.975,9.501,10.975,7.563z M10.722,11.388c0.442,0.436,0.96,0.795,1.531,1.058
			c-0.403,0.335-0.762,0.727-1.069,1.167L10.722,11.388z"/>
	</g>
	<g>
		<g>
			<path fill="#5D5D5D" d="M38.914,36.009c0,0.245,0.099,0.485,0.272,0.657c0.174,0.174,0.412,0.272,0.657,0.272
				c0.244,0,0.484-0.099,0.657-0.272c0.173-0.173,0.272-0.411,0.272-0.657c0-0.244-0.099-0.483-0.272-0.657
				c-0.173-0.173-0.412-0.272-0.657-0.272c-0.244,0-0.484,0.099-0.657,0.272C39.013,35.525,38.914,35.765,38.914,36.009z"/>
		</g>
	</g>
</g>
</svg>
