<?xml version="1.0" encoding="utf-8"?>
<!-- Generator: Adobe Illustrator 17.0.0, SVG Export Plug-In . SVG Version: 6.00 Build 0)  -->
<!DOCTYPE svg PUBLIC "-//W3C//DTD SVG 1.1//EN" "http://www.w3.org/Graphics/SVG/1.1/DTD/svg11.dtd">
<svg version="1.1" id="Capa_1" xmlns="http://www.w3.org/2000/svg" xmlns:xlink="http://www.w3.org/1999/xlink" x="0px" y="0px"
	 width="50px" height="38.167px" viewBox="0 0 50 38.167" enable-background="new 0 0 50 38.167" xml:space="preserve">
<g>
	<path fill-rule="evenodd" clip-rule="evenodd" fill="#5D5D5D" d="M43.007,28.742l0-25.568c0-0.127-0.061-0.187-0.189-0.187H7.434
		c-0.127,0-0.186,0.06-0.186,0.187L7.25,28.744c0,0.123,0.063,0.182,0.189,0.182h35.378C42.945,28.926,43.007,28.869,43.007,28.742
		L43.007,28.742z M46.042,30.951c0.607,0.769,1.217,1.535,1.825,2.302c0.44,0.555,1.084,1.09,1.084,1.851
		c0,1.059-1.365,2.144-2.365,2.144L3.604,37.239c-0.975,0-2.299-1.095-2.299-2.113c0-0.676,1.299-2.134,1.746-2.712l1.047-1.354
		c0.306-0.396,0.793-0.732,1.336-0.959c-0.259-0.384-0.409-0.849-0.409-1.356L5.018,3.174c0-1.345,1.065-2.406,2.416-2.406h35.384
		c1.354,0,2.419,1.064,2.419,2.406l0,25.568c0,0.493-0.144,0.948-0.393,1.328C45.334,30.294,45.764,30.599,46.042,30.951
		L46.042,30.951z M6.135,33.366c-0.434,0-0.601-0.285-0.398-0.687c0.255-0.505,0.774-1.53,1.452-1.53l35.84,0
		c0.665,0,1.212,1.034,1.463,1.531c0.186,0.368,0.071,0.688-0.371,0.688l-12.291-0.001l0.125,0.945
		c0.029,0.219-0.093,0.352-0.311,0.352H18.797c-0.226,0-0.546-0.138-0.48-0.352l0.293-0.945H6.135L6.135,33.366z"/>
	<path fill-rule="evenodd" clip-rule="evenodd" fill="#5D5D5D" d="M25.128,21.173c0.761,0,1.45,0.304,1.953,0.797l-1.953,1.943
		l-1.953-1.943C23.677,21.477,24.367,21.173,25.128,21.173L25.128,21.173z M36.3,12.796l-1.835,1.826
		c-5.161-5.12-13.512-5.12-18.673,0l-1.835-1.826C20.123,6.676,30.132,6.675,36.3,12.796L36.3,12.796z M33.286,15.794l-1.835,1.826
		c-3.498-3.465-9.149-3.465-12.647,0l-1.835-1.826C21.473,11.328,28.782,11.328,33.286,15.794L33.286,15.794z M30.273,18.792
		l-1.835,1.826c-1.835-1.81-4.786-1.81-6.621,0l-1.835-1.826C22.823,15.981,27.432,15.981,30.273,18.792L30.273,18.792z"/>
</g>
</svg>
