<?xml version="1.0" encoding="utf-8"?>
<!-- Generator: Adobe Illustrator 17.0.0, SVG Export Plug-In . SVG Version: 6.00 Build 0)  -->
<!DOCTYPE svg PUBLIC "-//W3C//DTD SVG 1.1//EN" "http://www.w3.org/Graphics/SVG/1.1/DTD/svg11.dtd">
<svg version="1.1" id="Capa_1" xmlns="http://www.w3.org/2000/svg" xmlns:xlink="http://www.w3.org/1999/xlink" x="0px" y="0px"
	 width="28.595px" height="82px" viewBox="0 0 28.595 82" enable-background="new 0 0 28.595 82" xml:space="preserve">
<g>
	<path fill="#5D5D5D" d="M2.594,15.707c-0.25-3.411,0.835-6.877,3.32-9.498c0.393-0.415,0.814-0.803,1.257-1.163
		c2.846-2.318,6.127-3.248,9.785-2.763c1.956,0.259,3.761,0.942,5.374,2.066c4.709,3.28,6.806,9.389,4.821,14.815
		c-0.414,1.133-0.994,2.201-1.692,3.183c-3.049,4.293-6.094,8.589-9.135,12.887c-0.231,0.327-0.475,0.625-0.848,0.794
		c-0.176,0-0.353,0-0.529,0c-0.282-0.265-0.618-0.492-0.838-0.801c-3.044-4.269-6.069-8.553-9.106-12.827
		C3.577,20.395,2.767,18.065,2.594,15.707z M15.231,10.62c-2.327-0.011-4.237,1.879-4.253,4.207
		c-0.016,2.326,1.871,4.241,4.198,4.261c2.339,0.021,4.263-1.883,4.27-4.223C19.452,12.538,17.558,10.63,15.231,10.62z"/>
	<circle fill="#5D5D5D" cx="15.795" cy="73.954" r="4.611"/>
	<g>
		<path fill="#5D5D5D" d="M15.5,73.212c-0.547,0-0.5-0.442-0.5-0.989v-5.934c0-0.547-0.047-0.989,0.5-0.989
			c0.547,0,0.5,0.442,0.5,0.989v5.934C16,72.769,16.047,73.212,15.5,73.212z"/>
	</g>
	<g>
		<path fill="#5D5D5D" d="M15.5,62.284c-0.547,0-0.5-0.442-0.5-0.989v-5.934c0-0.547-0.047-0.989,0.5-0.989
			c0.547,0,0.5,0.442,0.5,0.989v5.934C16,61.841,16.047,62.284,15.5,62.284z"/>
	</g>
	<g>
		<path fill="#5D5D5D" d="M15.5,51.014c-0.547,0-0.5-0.442-0.5-0.989v-5.934c0-0.547-0.047-0.989,0.5-0.989
			c0.547,0,0.5,0.442,0.5,0.989v5.934C16,50.572,16.047,51.014,15.5,51.014z"/>
	</g>
	<g>
		<path fill="#5D5D5D" d="M15.5,40.086c-0.547,0-0.5-0.442-0.5-0.989v-5.934c0-0.547-0.047-0.989,0.5-0.989
			c0.547,0,0.5,0.442,0.5,0.989v5.934C16,39.644,16.047,40.086,15.5,40.086z"/>
	</g>
</g>
</svg>
