<?xml version="1.0" encoding="utf-8"?>
<!-- Generator: Adobe Illustrator 17.0.0, SVG Export Plug-In . SVG Version: 6.00 Build 0)  -->
<!DOCTYPE svg PUBLIC "-//W3C//DTD SVG 1.1//EN" "http://www.w3.org/Graphics/SVG/1.1/DTD/svg11.dtd">
<svg version="1.1" id="Capa_1" xmlns="http://www.w3.org/2000/svg" xmlns:xlink="http://www.w3.org/1999/xlink" x="0px" y="0px"
	 width="50px" height="50px" viewBox="0 0 50 50" enable-background="new 0 0 50 50" xml:space="preserve">
<path fill="#5D5D5D" d="M47.892,45.988l-8.355-27.849h6.929c1.52,0,2.06-2.024,0.738-2.78L26.37,3.452
	c-0.458-0.261-1.019-0.261-1.477,0L4.059,15.358c-1.32,0.755-0.782,2.78,0.738,2.78h6.929L3.371,45.988
	c-0.286,0.952,0.427,1.916,1.426,1.916h41.669C47.459,47.903,48.178,46.943,47.892,45.988z M27.12,40.462
	c0,0.822-0.666,1.488-1.488,1.488c-0.822,0-1.488-0.666-1.488-1.488v-8.929c0-0.822,0.666-1.488,1.488-1.488
	c0.822,0,1.488,0.666,1.488,1.488V40.462z M27.12,25.579c0,0.822-0.666,1.488-1.488,1.488c-0.822,0-1.488-0.666-1.488-1.488v-5.953
	c0-0.822,0.666-1.488,1.488-1.488c0.822,0,1.488,0.666,1.488,1.488V25.579z M27.12,13.673c0,0.822-0.666,1.488-1.488,1.488
	c-0.822,0-1.488-0.666-1.488-1.488v-2.976c0-0.822,0.666-1.488,1.488-1.488c0.822,0,1.488,0.666,1.488,1.488V13.673z"/>
</svg>
