<?xml version="1.0" encoding="utf-8"?>
<!-- Generator: Adobe Illustrator 17.0.0, SVG Export Plug-In . SVG Version: 6.00 Build 0)  -->
<!DOCTYPE svg PUBLIC "-//W3C//DTD SVG 1.1//EN" "http://www.w3.org/Graphics/SVG/1.1/DTD/svg11.dtd">
<svg version="1.1" id="Capa_1" xmlns="http://www.w3.org/2000/svg" xmlns:xlink="http://www.w3.org/1999/xlink" x="0px" y="0px"
	 width="28.595px" height="82px" viewBox="0 0 28.595 82" enable-background="new 0 0 28.595 82" xml:space="preserve">
<g>
	<circle fill="#5D5D5D" cx="14.109" cy="71.391" r="5.536"/>
	<circle fill="#5D5D5D" cx="14.109" cy="9.51" r="5.536"/>
	<g>
		<path fill="#5D5D5D" d="M14,70.5c-0.656,0-1-0.531-1-1.187v-7.123c0-0.656,0.344-1.187,1-1.187s1,0.531,1,1.187v7.123
			C15,69.969,14.656,70.5,14,70.5z"/>
	</g>
	<g>
		<path fill="#5D5D5D" d="M14,57.381c-0.656,0-1-0.531-1-1.187V49.07c0-0.656,0.344-1.187,1-1.187s1,0.531,1,1.187v7.123
			C15,56.85,14.656,57.381,14,57.381z"/>
	</g>
	<g>
		<path fill="#5D5D5D" d="M14,43.852c-0.656,0-1-0.531-1-1.187v-7.123c0-0.656,0.344-1.187,1-1.187s1,0.531,1,1.187v7.123
			C15,43.321,14.656,43.852,14,43.852z"/>
	</g>
	<g>
		<path fill="#5D5D5D" d="M14,30.734c-0.656,0-1-0.531-1-1.187v-7.123c0-0.656,0.344-1.187,1-1.187s1,0.531,1,1.187v7.123
			C15,30.203,14.656,30.734,14,30.734z"/>
	</g>
</g>
</svg>
