<?xml version="1.0" encoding="utf-8"?>
<!-- Generator: Adobe Illustrator 17.0.0, SVG Export Plug-In . SVG Version: 6.00 Build 0)  -->
<!DOCTYPE svg PUBLIC "-//W3C//DTD SVG 1.1//EN" "http://www.w3.org/Graphics/SVG/1.1/DTD/svg11.dtd">
<svg version="1.1" id="Capa_1" xmlns="http://www.w3.org/2000/svg" xmlns:xlink="http://www.w3.org/1999/xlink" x="0px" y="0px"
	 width="46.667px" height="45.756px" viewBox="0 0 46.667 45.756" enable-background="new 0 0 46.667 45.756" xml:space="preserve">
<g>
	<g>
		<path fill="#5D5D5D" d="M3.07,17.374c3.301,5.426,7.023,10.211,11.28,14.469c4.258,4.257,9.042,7.979,14.469,11.28l7.828-3.558
			c-1.001-1.163-2.074-2.258-3.218-3.283c-1.257-1.126-2.609-2.176-4.057-3.151l-0.047,0.051c-0.096,0.105-0.229,0.254-0.357,0.396
			c-2.382,2.653-2.831,3.154-7.983-0.492c-1.499-1.061-2.945-2.288-4.268-3.61c-1.323-1.323-2.55-2.769-3.61-4.268
			c-3.645-5.152-3.144-5.602-0.492-7.983c0.142-0.127,0.291-0.261,0.396-0.357l0.059-0.054c-0.953-1.46-1.991-2.827-3.119-4.093
			c-1.029-1.154-2.131-2.223-3.311-3.2L3.07,17.374L3.07,17.374z M13.022,33.171c-4.448-4.448-8.33-9.469-11.772-15.187
			c-0.19-0.264-0.237-0.62-0.093-0.938l0.002,0.001l4.245-9.341c0.031-0.082,0.075-0.161,0.13-0.234
			C5.85,7.059,6.439,6.979,6.852,7.294L6.851,7.296c1.636,1.247,3.133,2.643,4.501,4.178c1.353,1.518,2.583,3.174,3.699,4.958
			c0.272,0.382,0.222,0.916-0.134,1.239l-0.001-0.001l-0.644,0.585c-0.173,0.157-0.291,0.263-0.403,0.364
			c-1.613,1.448-1.918,1.722,0.763,5.511c0.978,1.382,2.138,2.744,3.412,4.018c1.274,1.274,2.636,2.434,4.019,3.412
			c3.789,2.681,4.062,2.376,5.511,0.763c0.101-0.112,0.207-0.23,0.364-0.403l0.547-0.602c0.297-0.37,0.832-0.464,1.24-0.201
			l-0.001,0.002c1.77,1.14,3.42,2.396,4.952,3.768c1.514,1.356,2.901,2.817,4.162,4.38c0.068,0.073,0.126,0.158,0.17,0.254
			c0.215,0.472,0.006,1.029-0.466,1.244l-0.389-0.855l0.385,0.855l-9.34,4.245c-0.281,0.149-0.631,0.151-0.923-0.025l0.001-0.002
			C22.53,41.531,17.487,37.636,13.022,33.171z"/>
	</g>
	<g>
		<path fill="#5D5D5D" d="M5.385,11.123c-0.347-0.383-0.938-0.413-1.321-0.066c-0.383,0.346-0.413,0.938-0.066,1.321l6.981,7.716
			c0.346,0.383,0.938,0.413,1.321,0.066c0.383-0.346,0.413-0.938,0.066-1.321L5.385,11.123z"/>
	</g>
	<g>
		<path fill="#5D5D5D" d="M33.773,42.153c0.383,0.346,0.974,0.317,1.321-0.066c0.347-0.383,0.317-0.974-0.066-1.321l-7.716-6.981
			c-0.383-0.347-0.974-0.317-1.321,0.066c-0.346,0.383-0.317,0.974,0.066,1.321L33.773,42.153z"/>
	</g>
	<g>
		<path fill="#5D5D5D" d="M19.26,0.687c-0.51,0.079-0.86,0.557-0.781,1.068c0.079,0.511,0.557,0.86,1.068,0.782
			c0.594-0.094,1.206-0.162,1.834-0.206c0.63-0.044,1.247-0.06,1.849-0.049c5.838,0.106,11.081,2.569,14.84,6.466
			c3.759,3.898,6.031,9.229,5.925,15.071c-0.008,0.517,0.404,0.942,0.921,0.95c0.517,0.008,0.942-0.404,0.95-0.921
			c0.115-6.357-2.357-12.158-6.446-16.399c-4.091-4.242-9.8-6.923-16.16-7.038c-0.684-0.012-1.352,0.004-2.004,0.049
			C20.602,0.505,19.936,0.581,19.26,0.687z"/>
	</g>
	<g>
		<path fill="#5D5D5D" d="M20.016,8.116c-0.51,0.079-0.86,0.557-0.782,1.068c0.079,0.511,0.557,0.861,1.068,0.782
			c0.378-0.059,0.772-0.104,1.181-0.132c0.412-0.028,0.81-0.039,1.193-0.032c3.759,0.068,7.136,1.655,9.557,4.165
			c2.421,2.511,3.885,5.945,3.817,9.708c-0.008,0.517,0.404,0.942,0.921,0.95c0.517,0.008,0.942-0.404,0.95-0.921
			c0.078-4.278-1.586-8.182-4.338-11.036C30.83,9.812,26.987,8.008,22.705,7.93c-0.464-0.008-0.914,0.002-1.347,0.032
			C20.923,7.993,20.475,8.044,20.016,8.116z"/>
	</g>
	<g>
		<path fill="#5D5D5D" d="M22.785,15.459l-1.431,0.097c-0.511,0.079-0.861,0.557-0.782,1.068c0.079,0.511,0.557,0.861,1.068,0.782
			c0.161-0.025,0.338-0.045,0.529-0.058c0.192-0.013,0.371-0.019,0.534-0.016v0.004l0.017,0l0,0l0,0h0.004l0.011,0l0.013,0
			l0.011-0.001l0.013-0.001l0.007,0c1.651,0.05,3.133,0.755,4.2,1.862c1.043,1.082,1.66,2.547,1.709,4.155
			c0.057,1.858,1.918,1.365,1.872,0.025c-0.004-0.114-0.004-0.227-0.009-0.34c-0.095-1.989-0.923-3.792-2.222-5.139
			c-1.396-1.448-3.338-2.37-5.504-2.433l-0.015-0.002l-0.002,0L22.785,15.459L22.785,15.459l-0.023-0.001
			C22.769,15.458,22.777,15.458,22.785,15.459L22.785,15.459z M22.762,15.458l-1.408,0.098c0.243-0.038,0.474-0.065,0.69-0.08
			c0.211-0.015,0.436-0.02,0.676-0.016v-0.003l0,0l0.017,0l0,0h0.002l0.02,0.001L22.762,15.458z"/>
	</g>
</g>
</svg>
