<?xml version="1.0" encoding="utf-8"?>
<!-- Generator: Adobe Illustrator 17.0.0, SVG Export Plug-In . SVG Version: 6.00 Build 0)  -->
<!DOCTYPE svg PUBLIC "-//W3C//DTD SVG 1.1//EN" "http://www.w3.org/Graphics/SVG/1.1/DTD/svg11.dtd">
<svg version="1.1" id="Capa_1" xmlns="http://www.w3.org/2000/svg" xmlns:xlink="http://www.w3.org/1999/xlink" x="0px" y="0px"
	 width="50px" height="42.167px" viewBox="0 0 50 42.167" enable-background="new 0 0 50 42.167" xml:space="preserve">
<g>
	<g>
		<path fill="#000" d="M48.586,6.514c-0.383-0.262-0.888-0.253-1.26,0.025c-0.256,0.191-0.639,0.361-1.084,0.51
			c1.469-1.821,1.491-3.039,1.469-3.338c-0.029-0.39-0.266-0.735-0.62-0.9c-0.355-0.167-0.771-0.13-1.088,0.099
			C44,4.342,41.998,4.654,40.829,4.695c-1.902-1.767-4.362-2.736-6.977-2.736c-5.656,0-10.259,4.6-10.259,10.257
			c0,0.409,0.024,0.818,0.073,1.223C14.226,13.204,6.57,4.307,6.493,4.216c-0.226-0.269-0.567-0.41-0.92-0.379
			c-0.35,0.031-0.663,0.23-0.84,0.532c-2.402,4.107-1.422,7.998,0.225,10.72c-0.306-0.164-0.676-0.175-0.994-0.016
			c-0.362,0.179-0.594,0.546-0.601,0.951c-0.07,4.314,1.9,6.901,3.888,8.407c-0.146,0.06-0.279,0.152-0.388,0.272
			c-0.259,0.283-0.348,0.683-0.235,1.05c1.382,4.457,4.629,6.128,6.906,6.754c-2.612,1.842-5.843,2.273-8.299,2.273
			c-1.568,0-2.648-0.186-2.648-0.186c-0.5-0.089-0.991,0.174-1.191,0.633c-0.199,0.459-0.058,0.995,0.342,1.295
			c4.927,3.705,10.876,4.482,15.001,4.482c3.259,0,5.524-0.476,5.639-0.501c21.169-4.943,21.973-23.924,21.94-27.383
			c3.968-3.646,4.6-5.069,4.7-5.424C49.142,7.251,48.969,6.776,48.586,6.514z"/>
	</g>
</g>
</svg>
