<?xml version="1.0" encoding="utf-8"?>
<!-- Generator: Adobe Illustrator 17.0.0, SVG Export Plug-In . SVG Version: 6.00 Build 0)  -->
<!DOCTYPE svg PUBLIC "-//W3C//DTD SVG 1.1//EN" "http://www.w3.org/Graphics/SVG/1.1/DTD/svg11.dtd">
<svg version="1.1" id="Capa_1" xmlns="http://www.w3.org/2000/svg" xmlns:xlink="http://www.w3.org/1999/xlink" x="0px" y="0px"
	 width="50px" height="46.667px" viewBox="0 0 50 46.667" enable-background="new 0 0 50 46.667" xml:space="preserve">
<path fill="#00b150" d="M1.117,43.048c0.076-0.549,0.184-1.095,0.22-1.646c0.052-0.809,0.403-1.506,1.104-1.931
	c1.373-0.834,2.739-1.737,4.242-2.315c3.274-1.257,6.632-2.328,9.955-3.475c0.137-0.047,0.273-0.097,0.413-0.135
	c1.337-0.356,2.025-1.151,1.994-2.46c-0.019-0.792,0.009-1.584-0.005-2.376c-0.015-0.879-0.334-1.639-0.957-2.327
	c-1.198-1.323-1.511-2.972-1.913-4.594c-0.192-0.776-0.589-1.507-0.836-2.274c-0.391-1.213-0.742-2.438-1.088-3.663
	c-0.05-0.177-0.039-0.404,0.036-0.571c0.543-1.206,0.319-2.447,0.109-3.65c-0.485-2.774,0.206-5.211,2.215-7.315
	c2.13-2.23,4.917-3.126,8.043-3.231C27.5,0.99,30.199,1.49,32.501,3.159c2.154,1.561,3.486,3.598,3.7,6.139
	c0.086,1.026-0.116,2.076-0.229,3.112c-0.097,0.885-0.159,1.739,0.137,2.627c0.174,0.52,0.091,1.152-0.027,1.707
	c-0.249,1.172-0.655,2.292-1.29,3.362c-0.387,0.652-0.471,1.468-0.637,2.22c-0.358,1.626-0.906,3.158-2.089,4.465
	c-0.313,0.346-0.517,0.865-0.551,1.318c-0.085,1.113-0.049,2.234-0.048,3.351c0.001,0.976,0.566,1.591,1.525,1.908
	c1.395,0.461,2.803,0.888,4.199,1.346c3.012,0.988,6.014,1.999,8.817,3.443c0.346,0.178,0.675,0.386,1.016,0.574
	c1.466,0.806,2.241,1.95,2.198,3.57c-0.029,1.098,0.07,2.199,0.111,3.298c-16.072,0-32.144,0-48.216,0
	C1.117,44.747,1.117,43.898,1.117,43.048z"/>
</svg>
