<?xml version="1.0" encoding="utf-8"?>
<!-- Generator: Adobe Illustrator 17.0.0, SVG Export Plug-In . SVG Version: 6.00 Build 0)  -->
<!DOCTYPE svg PUBLIC "-//W3C//DTD SVG 1.1//EN" "http://www.w3.org/Graphics/SVG/1.1/DTD/svg11.dtd">
<svg version="1.1" id="Capa_1" xmlns="http://www.w3.org/2000/svg" xmlns:xlink="http://www.w3.org/1999/xlink" x="0px" y="0px"
	 width="32.732px" height="32.518px" viewBox="0 0 32.732 32.518" enable-background="new 0 0 32.732 32.518" xml:space="preserve">
<g>
	<path fill="#5D5D5D" d="M16.392,0.959c-8.56,0-15.5,6.94-15.5,15.5c0,8.56,6.94,15.5,15.5,15.5s15.5-6.94,15.5-15.5
		C31.892,7.899,24.952,0.959,16.392,0.959z M7.857,25.143c0,0,0-0.436,0-0.776c0-0.22-0.13-0.439-0.117-0.66
		c0.019-0.325,0.05-0.604,0.31-0.775c0.509-0.334,0.965-0.697,1.522-0.928c1.213-0.504,2.432-0.934,3.663-1.394
		c0.051-0.019,0.089-0.039,0.141-0.054c0.495-0.143,0.744-0.462,0.733-0.987c-0.007-0.318,0-0.635-0.005-0.953
		c-0.005-0.352-0.125-0.657-0.356-0.933c-0.444-0.531-0.561-1.192-0.709-1.843c-0.071-0.311-0.218-0.605-0.31-0.912
		c-0.145-0.487-0.275-0.978-0.403-1.469c-0.019-0.071-0.015-0.162,0.013-0.229c0.201-0.484,0.118-0.982,0.04-1.464
		c-0.18-1.113,0.076-2.09,0.82-2.934c0.789-0.895,1.821-1.254,2.979-1.296c1.056-0.038,2.055,0.162,2.908,0.832
		c0.798,0.626,1.291,1.444,1.371,2.463c0.032,0.412-0.043,0.833-0.085,1.248c-0.036,0.355-0.059,0.698,0.051,1.054
		c0.064,0.208,0.034,0.462-0.01,0.685c-0.092,0.47-0.243,0.919-0.478,1.349c-0.143,0.262-0.175,0.589-0.236,0.891
		c-0.133,0.652-0.336,1.267-0.774,1.791c-0.116,0.139-0.191,0.347-0.204,0.529c-0.031,0.446-0.018,0.896-0.018,1.344
		c0,0.391,0.21,0.638,0.565,0.765c0.517,0.185,1.038,0.356,1.555,0.54c1.116,0.396,2.228,0.802,3.266,1.381
		c0.128,0.072,0.25,0.155,0.376,0.23c0.543,0.323,0.83,0.659,0.814,1.309c-0.011,0.44,0.026,1.2,0.041,1.2
		C19.369,25.143,13.857,25.143,7.857,25.143z"/>
</g>
</svg>
