<?xml version="1.0" encoding="utf-8"?>
<!-- Generator: Adobe Illustrator 17.0.0, SVG Export Plug-In . SVG Version: 6.00 Build 0)  -->
<!DOCTYPE svg PUBLIC "-//W3C//DTD SVG 1.1//EN" "http://www.w3.org/Graphics/SVG/1.1/DTD/svg11.dtd">
<svg version="1.1" id="Capa_1" xmlns="http://www.w3.org/2000/svg" xmlns:xlink="http://www.w3.org/1999/xlink" x="0px" y="0px"
	 width="45.871px" height="46.161px" viewBox="0 0 45.871 46.161" enable-background="new 0 0 45.871 46.161" xml:space="preserve">
<g transform="translate(2 1)">
	<g>
		<g>
			<path fill="#5D5D5D" d="M20.973,0.069C9.008,0.069-0.71,9.787-0.71,21.68c0,3.771,1.015,7.397,2.901,10.733L-1,43.871
				l11.676-3.118c3.408,1.813,6.962,2.828,10.298,2.828c11.821,0,21.828-10.008,21.828-21.901S33.012,0.069,20.973,0.069z
				 M20.973,42.13c-3.191,0-6.599-1.015-9.863-2.828l-0.29-0.145l-9.79,2.683l2.683-9.645l-0.145-0.29
				C1.756,28.787,0.74,25.233,0.74,21.68c0-11.095,9.065-20.16,20.233-20.16c11.24,0,20.378,9.065,20.378,20.16
				S31.996,42.13,20.973,42.13z"/>
			<path fill="#5D5D5D" d="M20.973,3.695c-9.935,0-18.057,8.05-18.057,17.985c0,3.553,1.015,6.889,2.828,9.863l0.29,0.363
				l-1.958,6.889l7.107-1.813l0.363,0.218c2.973,1.813,6.237,2.756,9.428,2.756c10.008,0,18.202-8.195,18.202-18.275
				C39.176,11.745,30.981,3.695,20.973,3.695z M20.901,38.577c-2.901,0-5.874-0.943-8.63-2.611l-0.87-0.58l-5.294,1.305l1.45-5.076
				l-0.58-0.943c-1.74-2.683-2.611-5.802-2.611-8.992c0-9.065,7.469-16.534,16.607-16.534c9.21,0,16.752,7.469,16.752,16.534
				C37.725,30.962,30.183,38.504,20.901,38.577z"/>
			<path fill="#5D5D5D" d="M31.851,25.668l-4.569-2.103c-0.653-0.29-1.305-0.072-1.74,0.435l-1.74,2.248
				c-1.305-0.508-4.931-2.103-7.034-6.019l1.595-1.886c0.363-0.435,0.435-1.015,0.218-1.523l-1.958-4.641
				c-0.218-0.508-0.653-0.87-1.233-0.87l-1.378-0.072c-0.58,0-1.233,0.145-1.668,0.58c-0.653,0.58-1.886,1.813-2.248,3.481
				c-0.508,2.393,0.29,5.221,2.321,7.977c1.233,1.74,5.004,6.889,12.256,8.92c0.725,0.218,1.45,0.29,2.103,0.29
				c1.233,0,2.393-0.363,3.408-0.943c1.16-0.725,1.958-1.958,2.248-3.263l0.218-1.015C32.794,26.611,32.431,25.958,31.851,25.668z
				 M30.908,27.916c-0.218,0.943-0.798,1.813-1.595,2.321c-1.233,0.798-2.683,0.943-4.279,0.508
				C18.29,28.859,14.737,24,13.576,22.405c-1.74-2.393-2.466-4.859-2.031-6.817c0.29-1.305,1.233-2.248,1.813-2.756
				c0.145-0.145,0.363-0.218,0.58-0.218l1.45,0.145l1.958,4.569l-1.74,1.958c-0.29,0.363-0.363,0.943-0.145,1.378
				c2.393,4.641,6.744,6.454,8.05,6.889c0.508,0.145,1.015,0,1.378-0.435l1.74-2.321l4.569,2.103L30.908,27.916z"/>
		</g>
	</g>
</g>
</svg>
