<?xml version="1.0" encoding="utf-8"?>
<!-- Generator: Adobe Illustrator 17.0.0, SVG Export Plug-In . SVG Version: 6.00 Build 0)  -->
<!DOCTYPE svg PUBLIC "-//W3C//DTD SVG 1.1//EN" "http://www.w3.org/Graphics/SVG/1.1/DTD/svg11.dtd">
<svg version="1.1" id="Capa_1" xmlns="http://www.w3.org/2000/svg" xmlns:xlink="http://www.w3.org/1999/xlink" x="0px" y="0px"
	 width="83.333px" height="74.667px" viewBox="0 0 83.333 74.667" enable-background="new 0 0 83.333 74.667" xml:space="preserve">
<g>
	<polygon fill="#FFFFFF" points="81.296,70.328 11.944,70.328 11.944,2.483 81.296,2.483 81.296,70.328 	"/>
	<g>
		<defs>
			<path id="SVGID_49_" d="M78.784,52.665c0,0-0.134-0.008-0.26-0.014l-5.43,0.003v-0.372c-0.617,0.254-1.275,0.383-1.906,0.383
				c0,0-0.132-0.008-0.26-0.014l-3.216,0.002v0.015h-7.78v0.014h-5.288v-1.595c0,0,0.008-1.134,0.009-1.348
				c-0.047,0-0.223,0-0.351,0c0,0.668,0,2.943,0,2.943h-5.345v-3.189c-0.879,0.355-1.885,0.447-2.841,0.447c0,0-0.325,0-0.515,0
				c0,0.55,0,2.728,0,2.728h-6.308c0,0-1.027-1.133-1.58-1.74c-0.558,0.611-1.591,1.74-1.591,1.74h-10.31v-11.69H35.95
				c0,0,1.126,1.23,1.774,1.938c0.651-0.704,1.78-1.924,1.78-1.924h0.697l1.651-0.014h5.17c0.301-0.02,1.091-0.025,1.935,0.293
				v-0.265h6.762c0.332-0.024,1.194-0.04,2.085,0.329v-0.329h8.313h1.595v0.335c0.936-0.378,1.798-0.354,1.93-0.346l5.638-0.003
				v0.361c0.946-0.39,1.824-0.366,1.957-0.358l4.057-0.002V2.483H11.944V32.25l2.373-5.631h5.149c0,0,0.594,1.412,0.618,1.471
				c0-0.212,0-1.471,0-1.471h6.03c0,0,0.902,2.007,1.333,2.965c0.427-0.955,1.325-2.965,1.325-2.965h4.034h0.404h1.595h5.841h0.475
				h1.595h4.687c0.33-0.024,1.193-0.041,2.088,0.329v-0.329h3.763h1.595v0.705c0.785-0.488,1.681-0.737,2.583-0.777
				c0,0,2.876,0.078,2.987,0.081l0.003-0.009h5.135c0,0,0.558,1.331,0.573,1.369c0-0.333,0-1.369,0-1.369h5.54
				c0,0,0.791,1.308,0.879,1.455c0-0.234,0-1.455,0-1.455h5.359v11.676H72.44c0,0-0.816-1.352-0.921-1.527c0,0.125,0,1.527,0,1.527
				H64.65c0,0-0.589-1.377-0.762-1.78c-0.714,0-1.103,0-1.821,0c-0.165,0.397-0.745,1.78-0.745,1.78h-4.549l-0.114-0.016
				c-0.505-0.072-1.162-0.303-1.81-0.713v0.758h-3.763v-0.029h-4.755v-1.595c0,0,0.008-1.133,0.009-1.348c-0.047,0-0.224,0-0.351,0
				c0,0.669,0,2.943,0,2.943h-3.273h-2.071h-5.841h-0.404h-4.97c0,0,0-0.143,0-0.179c-0.026,0.056-0.082,0.179-0.082,0.179h-3.805
				c0,0-0.065-0.139-0.101-0.218c0,0.052,0,0.218,0,0.218h-6.907c0,0-0.58-1.383-0.746-1.78c-0.717,0-1.106,0-1.82,0
				c-0.172,0.403-0.761,1.78-0.761,1.78h-3.265v32.033h69.352V51.976C80.525,52.448,79.629,52.665,78.784,52.665"/>
		</defs>
		<clipPath id="SVGID_2_">
			<use xlink:href="#SVGID_49_"  overflow="visible"/>
		</clipPath>
		<g clip-path="url(#SVGID_2_)">
			<defs>
				<rect id="SVGID_51_" x="11.944" y="2.483" width="69.352" height="67.844"/>
			</defs>
			<clipPath id="SVGID_4_">
				<use xlink:href="#SVGID_51_"  overflow="visible"/>
			</clipPath>
			<g transform="matrix(1 0 0 1 0 0)" clip-path="url(#SVGID_4_)">
				
					<image overflow="visible" width="96" height="93" xlink:href="B197119474A5B1EA.jpg"  transform="matrix(0.7658 0 0 -0.7658 9.8667 72.2771)">
				</image>
			</g>
		</g>
	</g>
	<g>
		<defs>
			<path id="SVGID_53_" d="M47.956,36.699v-1.651c0,0-0.087-1.292-1.436-1.292h-2.097v2.943H42.27v-8.485h5.226
				c0,0,2.728-0.33,2.728,2.483c0,1.465-1.206,1.981-1.206,1.981s1.047,0.489,1.047,1.925v2.095H47.956 M44.424,31.76h2.226
				c0.647,0,1.178-0.359,1.178-0.804c0-0.446-0.531-0.804-1.178-0.804h-2.226V31.76L44.424,31.76"/>
		</defs>
		<clipPath id="SVGID_6_">
			<use xlink:href="#SVGID_53_"  overflow="visible"/>
		</clipPath>
		<g clip-path="url(#SVGID_6_)">
			<defs>
				<rect id="SVGID_55_" x="42.27" y="27.884" width="7.954" height="8.815"/>
			</defs>
			<clipPath id="SVGID_8_">
				<use xlink:href="#SVGID_55_"  overflow="visible"/>
			</clipPath>
			<g transform="matrix(1 0 0 1 0 0)" clip-path="url(#SVGID_8_)">
				
					<image overflow="visible" width="16" height="16" xlink:href="B197119474A5B1EE.jpg"  transform="matrix(0.7658 0 0 -0.7658 40.3045 38.7407)">
				</image>
			</g>
		</g>
	</g>
	<g>
		<defs>
			<path id="SVGID_57_" d="M73.37,36.699l-3.417-5.671v5.671h-1.852h-0.346h-2.022l-0.762-1.78h-3.934l-0.748,1.78h-1.982h-0.358
				h-1.034c0,0-2.899-0.416-2.899-4.006c0-4.71,3.289-4.523,3.403-4.552l2.656,0.072v1.909l-2.181,0.028c0,0-1.422,0-1.595,1.853
				c-0.02,0.213-0.03,0.408-0.028,0.59c0.008,2.868,2.49,1.978,2.571,1.951l2.67-6.332h3.015l3.23,7.696v-7.696H70.8l3.375,5.585
				v-5.585h2.169v8.485H73.37 M61.956,32.751h2.096l-1.033-2.527L61.956,32.751L61.956,32.751"/>
		</defs>
		<clipPath id="SVGID_10_">
			<use xlink:href="#SVGID_57_"  overflow="visible"/>
		</clipPath>
		<g clip-path="url(#SVGID_10_)">
			<defs>
				<rect id="SVGID_59_" x="54.015" y="27.984" width="22.328" height="8.715"/>
			</defs>
			<clipPath id="SVGID_12_">
				<use xlink:href="#SVGID_59_"  overflow="visible"/>
			</clipPath>
			<g transform="matrix(1 0 0 1 0 0)" clip-path="url(#SVGID_12_)">
				
					<image overflow="visible" width="36" height="16" xlink:href="B197119474A5B1E9.jpg"  transform="matrix(0.7658 0 0 -0.7658 52.4462 38.7666)">
				</image>
			</g>
		</g>
	</g>
	<g>
		<defs>
			<path id="SVGID_61_" d="M31.056,36.699v-5.857l-2.699,5.857h-1.766l-2.714-5.829v5.829h-1.88h-0.287h-2.082l-0.746-1.78h-3.934
				l-0.761,1.78H11.83l3.575-8.485h3.03l3.273,7.796v-7.796h3.403l2.37,5.269l2.355-5.269h3.403v8.485H31.056 M15.865,32.751h2.096
				l-1.048-2.527L15.865,32.751L15.865,32.751"/>
		</defs>
		<clipPath id="SVGID_14_">
			<use xlink:href="#SVGID_61_"  overflow="visible"/>
		</clipPath>
		<g clip-path="url(#SVGID_14_)">
			<defs>
				<rect id="SVGID_63_" x="11.83" y="28.214" width="21.408" height="8.485"/>
			</defs>
			<clipPath id="SVGID_16_">
				<use xlink:href="#SVGID_63_"  overflow="visible"/>
			</clipPath>
			<g transform="matrix(1 0 0 1 0 0)" clip-path="url(#SVGID_16_)">
				
					<image overflow="visible" width="36" height="15" xlink:href="B197119474A5B1EB.jpg"  transform="matrix(0.7658 0 0 -0.7658 9.5949 38.8266)">
				</image>
			</g>
		</g>
	</g>
	<g>
		<defs>
			<polyline id="SVGID_65_" points="34.431,36.699 34.431,28.214 41.15,28.214 41.15,30.195 36.598,30.195 36.598,31.502 
				41.036,31.502 41.036,33.426 36.598,33.426 36.598,34.862 41.15,34.862 41.15,36.699 34.431,36.699 			"/>
		</defs>
		<clipPath id="SVGID_18_">
			<use xlink:href="#SVGID_65_"  overflow="visible"/>
		</clipPath>
		<g clip-path="url(#SVGID_18_)">
			<defs>
				<rect id="SVGID_67_" x="34.431" y="28.214" width="6.72" height="8.485"/>
			</defs>
			<clipPath id="SVGID_20_">
				<use xlink:href="#SVGID_67_"  overflow="visible"/>
			</clipPath>
			<g transform="matrix(1 0 0 1 0 0)" clip-path="url(#SVGID_20_)">
				
					<image overflow="visible" width="16" height="15" xlink:href="B197119474A5B1E8.jpg"  transform="matrix(0.7658 0 0 -0.7658 32.8436 38.8266)">
				</image>
			</g>
		</g>
	</g>
	<g>
		<defs>
			<polyline id="SVGID_69_" points="51.116,36.728 51.116,28.214 53.283,28.214 53.283,36.728 51.116,36.728 			"/>
		</defs>
		<clipPath id="SVGID_22_">
			<use xlink:href="#SVGID_69_"  overflow="visible"/>
		</clipPath>
		<g clip-path="url(#SVGID_22_)">
			<defs>
				<rect id="SVGID_71_" x="51.116" y="28.214" width="2.167" height="8.514"/>
			</defs>
			<clipPath id="SVGID_24_">
				<use xlink:href="#SVGID_71_"  overflow="visible"/>
			</clipPath>
			<g transform="matrix(1 0 0 1 0 0)" clip-path="url(#SVGID_24_)">
				
					<image overflow="visible" width="8" height="15" xlink:href="B197119474A5B1F6.jpg"  transform="matrix(0.7658 0 0 -0.7658 49.5258 38.8341)">
				</image>
			</g>
		</g>
	</g>
	<g>
		<defs>
			<path id="SVGID_73_" d="M56.27,51.086v-1.651c0,0-0.087-1.292-1.436-1.292h-2.096v2.943h-2.155v-8.486h5.227
				c0,0,2.728-0.33,2.728,2.484c0,1.465-1.206,1.982-1.206,1.982s1.034,0.488,1.034,1.923v2.097H56.27 M52.738,46.147h2.226
				c0.645,0,1.176-0.358,1.176-0.804c0-0.446-0.531-0.804-1.176-0.804h-2.226V46.147L52.738,46.147"/>
		</defs>
		<clipPath id="SVGID_26_">
			<use xlink:href="#SVGID_73_"  overflow="visible"/>
		</clipPath>
		<g clip-path="url(#SVGID_26_)">
			<defs>
				<rect id="SVGID_75_" x="50.583" y="42.27" width="7.955" height="8.816"/>
			</defs>
			<clipPath id="SVGID_28_">
				<use xlink:href="#SVGID_75_"  overflow="visible"/>
			</clipPath>
			<g transform="matrix(1 0 0 1 0 -3.814697e-06)" clip-path="url(#SVGID_28_)">
				
					<image overflow="visible" width="16" height="16" xlink:href="B197119474A5B1F9.jpg"  transform="matrix(0.7658 0 0 -0.7658 48.4561 53.1138)">
				</image>
			</g>
		</g>
	</g>
	<g>
		<defs>
			<path id="SVGID_77_" d="M41.911,51.072H40.03l-2.283-2.513l-2.298,2.513h-1.306h-6.706v-8.5h6.706h1.134l2.47,2.699l2.483-2.685
				h1.652v-0.014h5.226c0,0,2.728-0.302,2.728,2.497c0,2.499-0.905,3.275-3.69,3.275h-2.11v2.728H41.911 M39.212,46.895l2.67,2.957
				v-5.902L39.212,46.895L39.212,46.895 M29.606,49.236h4.537l2.125-2.34l-2.125-2.328h-4.537v1.306h4.422v1.926h-4.422V49.236
				L29.606,49.236 M44.036,46.132h2.225c0.646,0,1.177-0.359,1.177-0.804c0-0.444-0.531-0.804-1.177-0.804h-2.225V46.132
				L44.036,46.132"/>
		</defs>
		<clipPath id="SVGID_30_">
			<use xlink:href="#SVGID_77_"  overflow="visible"/>
		</clipPath>
		<g clip-path="url(#SVGID_30_)">
			<defs>
				<rect id="SVGID_79_" x="27.437" y="42.27" width="22.399" height="8.802"/>
			</defs>
			<clipPath id="SVGID_32_">
				<use xlink:href="#SVGID_79_"  overflow="visible"/>
			</clipPath>
			<g transform="matrix(1 0 0 1 0 0)" clip-path="url(#SVGID_32_)">
				
					<image overflow="visible" width="36" height="16" xlink:href="B197119474A5B1FA.jpg"  transform="matrix(0.7658 0 0 -0.7658 25.6261 53.1102)">
				</image>
			</g>
		</g>
	</g>
	<g>
		<defs>
			<path id="SVGID_81_" d="M70.959,51.058h-3.834v-1.954h3.36c0,0,1.206,0.143,1.206-0.673c0-0.764-1.823-0.704-1.823-0.704
				s-2.973,0.259-2.973-2.527c0-2.772,2.684-2.614,2.684-2.614h4.136v1.981h-3.331c0,0-1.15-0.23-1.15,0.604
				c0,0.701,1.564,0.601,1.564,0.601s3.289-0.243,3.289,2.312c0,2.74-2.119,2.984-2.87,2.984
				C71.057,51.069,70.959,51.058,70.959,51.058"/>
		</defs>
		<clipPath id="SVGID_34_">
			<use xlink:href="#SVGID_81_"  overflow="visible"/>
		</clipPath>
		<g clip-path="url(#SVGID_34_)">
			<defs>
				<rect id="SVGID_83_" x="66.895" y="42.429" width="7.193" height="8.641"/>
			</defs>
			<clipPath id="SVGID_36_">
				<use xlink:href="#SVGID_83_"  overflow="visible"/>
			</clipPath>
			<g transform="matrix(1 0 0 1 0 0)" clip-path="url(#SVGID_36_)">
				
					<image overflow="visible" width="16" height="16" xlink:href="B197119474A5B1F8.jpg"  transform="matrix(0.7658 0 0 -0.7658 65.164 53.1506)">
				</image>
			</g>
		</g>
	</g>
	<g>
		<defs>
			<polyline id="SVGID_85_" points="59.429,51.072 59.429,42.601 66.147,42.601 66.147,44.568 61.596,44.568 61.596,45.873 
				66.034,45.873 66.034,47.799 61.596,47.799 61.596,49.236 66.147,49.236 66.147,51.072 59.429,51.072 			"/>
		</defs>
		<clipPath id="SVGID_38_">
			<use xlink:href="#SVGID_85_"  overflow="visible"/>
		</clipPath>
		<g clip-path="url(#SVGID_38_)">
			<defs>
				<rect id="SVGID_87_" x="59.429" y="42.601" width="6.718" height="8.471"/>
			</defs>
			<clipPath id="SVGID_40_">
				<use xlink:href="#SVGID_87_"  overflow="visible"/>
			</clipPath>
			<g transform="matrix(1 0 0 1 -3.814697e-06 0)" clip-path="url(#SVGID_40_)">
				
					<image overflow="visible" width="16" height="15" xlink:href="AAD58A74DBF2B72D.jpg"  transform="matrix(0.7658 0 0 -0.7658 57.3294 53.1962)">
				</image>
			</g>
		</g>
	</g>
	<g>
		<defs>
			<path id="SVGID_89_" d="M78.554,51.058h-3.834v-1.954h3.347c0,0,1.22,0.143,1.22-0.673c0-0.764-1.823-0.704-1.823-0.704
				S74.49,47.986,74.49,45.2c0-2.772,2.684-2.614,2.684-2.614h4.122v1.981h-3.319c0,0-1.148-0.23-1.148,0.604
				c0,0.701,1.566,0.601,1.566,0.601s3.287-0.243,3.287,2.312c0,2.74-2.119,2.984-2.87,2.984
				C78.652,51.069,78.554,51.058,78.554,51.058"/>
		</defs>
		<clipPath id="SVGID_42_">
			<use xlink:href="#SVGID_89_"  overflow="visible"/>
		</clipPath>
		<g clip-path="url(#SVGID_42_)">
			<defs>
				<rect id="SVGID_91_" x="74.49" y="42.429" width="7.193" height="8.641"/>
			</defs>
			<clipPath id="SVGID_44_">
				<use xlink:href="#SVGID_91_"  overflow="visible"/>
			</clipPath>
			<g transform="matrix(1 0 0 1 0 0)" clip-path="url(#SVGID_44_)">
				
					<image overflow="visible" width="16" height="16" xlink:href="AAD58A74DBF2B723.jpg"  transform="matrix(0.7658 0 0 -0.7658 72.9425 53.1506)">
				</image>
			</g>
		</g>
	</g>
	<path fill="#008DCE" d="M3.301,67.283c0-1.767,1.422-3.188,3.202-3.188c1.766,0,3.187,1.421,3.187,3.188
		c0,1.767-1.421,3.188-3.187,3.188C4.723,70.471,3.301,69.05,3.301,67.283 M3.775,67.283c0,1.493,1.163,2.714,2.729,2.714
		c1.55,0,2.713-1.221,2.713-2.714c0-1.508-1.148-2.714-2.713-2.714C4.924,64.569,3.775,65.775,3.775,67.283 M7.293,68.748
		c-0.072-0.243-0.086-0.689-0.086-0.79c0-0.216-0.029-0.446-0.431-0.446H5.9v1.235H5.383v-2.987h1.393
		c0.474,0,1.005,0.157,1.005,0.833c0,0.372-0.158,0.545-0.33,0.675c0.143,0.072,0.259,0.201,0.273,0.531l0.015,0.517
		c0.014,0.156,0.029,0.187,0.143,0.257v0.173H7.293 M5.9,67.053h0.833c0.273,0,0.517-0.072,0.517-0.43
		c0-0.374-0.259-0.402-0.445-0.402H5.9V67.053"/>
</g>
</svg>
