<?xml version="1.0" encoding="utf-8"?>
<!-- Generator: Adobe Illustrator 17.0.0, SVG Export Plug-In . SVG Version: 6.00 Build 0)  -->
<!DOCTYPE svg PUBLIC "-//W3C//DTD SVG 1.1//EN" "http://www.w3.org/Graphics/SVG/1.1/DTD/svg11.dtd">
<svg version="1.1" id="Capa_1" xmlns="http://www.w3.org/2000/svg" xmlns:xlink="http://www.w3.org/1999/xlink" x="0px" y="0px"
	 width="79.333px" height="78.89px" viewBox="0 0 79.333 78.89" enable-background="new 0 0 79.333 78.89" xml:space="preserve">
<g>
	<rect x="1.806" y="3" fill-rule="evenodd" clip-rule="evenodd" fill="#FAE922" width="74.405" height="74.405"/>
	<path fill-rule="evenodd" clip-rule="evenodd" fill="#000100" d="M49.17,58.221l0.026,6.095c0.051,0.583,0.127,0.912,0.241,1.153
		c0.824,1.799,3.675,1.635,5.334,0.558l-0.735-1.534c-0.545,0.203-1.191,0.659-1.964,0.418c-0.684-0.202-0.634-1.014-0.634-1.812
		c0-1.647,0-3.282,0-4.929l4.6,0.013l3.7,8.439c0.076,0.368-0.748,1.825-0.925,2.065c-1.28,1.799-2.471,1.039-3.498,0.811
		l-0.507,1.825c1.952,0.747,3.992,0.469,5.132-0.773c1.014-1.102,1.597-2.648,2.23-4.371l3.548-9.808h-2.357l-2.496,7.539
		c-0.253-0.279-2.179-5.107-2.534-5.93c-0.481-1.115-1.179-1.597-2.661-1.61c-1.394-0.013-2.8,0-4.232,0v-3.028
		c-0.494,0.114-1.901,0.532-2.268,0.722v2.268l-1.824,0.025l0.013,1.812L49.17,58.221z M44.546,8.677
		c11.645,0,19.298,9.364,17.093,20.933C59.434,41.178,48.195,50.542,36.55,50.542c-11.658,0-19.311-9.364-17.106-20.933
		C21.661,18.041,32.888,8.677,44.546,8.677L44.546,8.677z M50.108,11.388c7.21,2.522,11.392,9.731,9.77,18.221
		c-1.888,9.896-10.986,18.044-20.869,19.083c-0.786-0.025-0.798-0.469-0.824-1.128c0.038-1.369,0.089-2.75,0.127-4.118
		c0.013-0.203-0.063-0.266-0.152-0.292c-1.014-0.101-2.015-0.329-3.003-0.633c-1.064-0.418-2.141-1.026-3.219-1.724
		c-0.494-0.24-0.431-1.381-0.418-1.824c0.089-0.811,0.684-2.699,1.647-2.788c1.153-0.063,1.698,0.545,2.838,1.102
		c2.002,0.95,4.803,1.508,6.88,0.532c1.001-0.608,1.242-1.432,0.773-2.471c-0.811-1.698-4.701-3.092-6.462-3.941
		c-4.219-1.799-6.576-5.449-5.829-9.795c0.557-3.206,3.561-5.639,6.703-6.082c0-0.507,0-1.014,0-1.533
		c-3.877,1.128-6.83,3.358-9.478,5.955c-3.839,3.751-6.095,8.49-6.285,14.547c0.304,7.413,4.156,10.695,8.186,13.153
		c-6.918-2.674-10.872-9.744-9.288-18.044c1.939-10.162,11.467-18.475,21.668-19.146c0.406,0.241,0.431,0.279,0.647,0.824
		c-0.089,1.28-0.165,2.56-0.254,3.839c2.015,0.406,3.915,0.976,5.449,2.281c0.051,2.94-2.154,4.169-2.991,3.725
		c0.038-0.139-3.32-1.064-4.017-1.229c-0.849-0.139-1.685-0.089-2.522,0.292c-0.988,0.469-1.457,1.166-0.988,2.255
		c0.405,0.811,1.077,1.343,1.812,1.799c2.116,1.14,4.232,2.293,6.349,3.434c1.824,1.026,3.13,2.357,3.966,3.966
		c0.608,1.597,0.747,3.219,0.393,4.866c-0.418,1.343-0.925,2.509-1.698,3.244c-0.646,0.735-1.356,1.305-2.116,1.711
		c-1.077,0.57-2.154,1.077-3.269,1.254c-0.038,0.684-0.063,1.356-0.101,2.04c0.089,0.051,0.177,0.025,0.279,0
		c2.395-0.773,4.498-2.129,6.551-3.611c2.661-2.344,5.144-4.802,6.45-7.983c0.887-1.774,1.571-3.738,1.901-6.044
		C59.434,20.663,57.077,14.581,50.108,11.388L50.108,11.388z M23.321,56.371l0.025-2.256c-0.025-0.798,0.697-2.04,1.685-2.496
		c0.912-0.418,2.648-0.444,3.51,0.114l-0.418,1.787c-2.572-0.57-2.56-0.089-2.56,2.851h2.8l-0.722,1.787l-2.078,0.013v8.414
		c-0.418,0.051-1.875,0.076-2.243-0.025v-8.376l-1.128-0.025l-0.697-1.774L23.321,56.371z M38.451,61.756
		c0.139,6.018,6.678,5.689,8.439,4.092c-0.063-0.253-0.507-1.381-0.659-1.533c-1.203,0.494-2.382,1.052-3.839,0.33
		c-2.268-1.115-2.103-5.335,0.19-6.386c0.887-0.406,2.116-0.368,3.041,0.025c0.33,0.152,0.57,0.317,0.836,0.431v-1.951
		c-1.343-0.532-2.319-0.887-4.017-0.507C39.882,56.852,38.4,59.197,38.451,61.756L38.451,61.756z M14.603,60.413
		c0.165-1.369,0.684-2.497,2.141-2.522c1.407-0.025,2.078,1.141,2.141,2.547L14.603,60.413z M20.888,65.849l-0.633-1.495
		c-0.596,0.165-0.963,0.456-1.736,0.595c-2.015,0.342-3.839-0.595-3.877-2.889h6.551c0-2.293-0.406-4.929-2.965-5.727
		c-1.178-0.38-2.623-0.24-3.599,0.342c-3.548,2.129-3.37,10.225,2.851,10.15C18.671,66.812,20.191,66.483,20.888,65.849
		L20.888,65.849z M30.696,60.438c0.114-1.381,0.748-2.535,2.167-2.547c1.369,0,2.065,1.191,2.078,2.547H30.696z M28.415,61.908
		c0.241,3.789,3.181,5.576,6.792,4.726c0.798-0.19,1.178-0.494,1.774-0.697l-0.634-1.596c-0.912,0.279-2.091,1.064-3.738,0.494
		c-1.09-0.393-1.85-1.343-1.888-2.762l6.564-0.013c0-2.99-0.9-5.917-4.346-5.943C29.568,56.08,28.238,58.918,28.415,61.908
		L28.415,61.908z"/>
</g>
<g>
	<defs>
		<rect id="SVGID_95_" x="101.667" y="5.979" width="206" height="72"/>
	</defs>
	<clipPath id="SVGID_2_">
		<use xlink:href="#SVGID_95_"  overflow="visible"/>
	</clipPath>
	<g id="_x38_2g8gw_1_" clip-path="url(#SVGID_2_)">
		
			<image overflow="visible" width="800" height="221" id="_x38_2g8gw_2_" xlink:href="B17565618C6C60C6.png"  transform="matrix(0.5306 0 0 0.5306 -63.1983 -25.4809)">
		</image>
	</g>
</g>
</svg>
