<?xml version="1.0" encoding="utf-8"?>
<!-- Generator: Adobe Illustrator 17.0.0, SVG Export Plug-In . SVG Version: 6.00 Build 0)  -->
<!DOCTYPE svg PUBLIC "-//W3C//DTD SVG 1.1//EN" "http://www.w3.org/Graphics/SVG/1.1/DTD/svg11.dtd">
<svg version="1.1" id="Capa_1" xmlns="http://www.w3.org/2000/svg" xmlns:xlink="http://www.w3.org/1999/xlink" x="0px" y="0px"
	 width="95.667px" height="74.667px" viewBox="0 0 95.667 74.667" enable-background="new 0 0 95.667 74.667" xml:space="preserve">
<g>
	<path fill="#FF9900" d="M92.048,29.199c0,15.17-12.275,27.469-27.417,27.469c-15.142,0-27.417-12.298-27.417-27.469
		c0-15.171,12.275-27.469,27.417-27.469C79.773,1.73,92.048,14.028,92.048,29.199L92.048,29.199L92.048,29.199z"/>
	<path fill="#FD030C" d="M58.225,29.199c0,15.17-12.275,27.469-27.417,27.469c-15.142,0-27.417-12.298-27.417-27.469
		c0-15.171,12.275-27.469,27.417-27.469C45.95,1.73,58.225,14.028,58.225,29.199L58.225,29.199L58.225,29.199z"/>
	<path fill="#FF5400" d="M47.719,7.575c-6.397,5.029-10.503,12.843-10.503,21.621c0,8.778,4.106,16.599,10.503,21.627
		c6.397-5.029,10.503-12.849,10.503-21.627C58.223,20.418,54.117,12.604,47.719,7.575L47.719,7.575z"/>
	<path fill="#FF9900" d="M90.375,43.774v-0.813h0.328v-0.166h-0.835v0.166h0.328v0.813H90.375L90.375,43.774z M91.997,43.774v-0.98
		h-0.256l-0.295,0.674l-0.294-0.674h-0.256v0.98h0.181v-0.739l0.276,0.637h0.187l0.276-0.639v0.741H91.997L91.997,43.774z"/>
	<path fill="#0C0704" d="M9.49,70.256H7.934v-7.261H9.46v0.885c0,0,1.34-1.081,2.135-1.068c1.547,0.026,2.471,1.342,2.471,1.342
		s0.749-1.342,2.44-1.342c2.501,0,2.868,2.288,2.868,2.288v5.125h-1.495v-4.515c0,0,0.005-1.373-1.617-1.373
		c-1.677,0-1.83,1.373-1.83,1.373v4.515h-1.556V65.68c0,0-0.149-1.434-1.556-1.434c-1.826,0-1.861,1.464-1.861,1.464L9.49,70.256
		L9.49,70.256z"/>
	<path fill="#0C0704" d="M56.803,62.812c-0.796-0.014-2.135,1.068-2.135,1.068v-0.883h-1.527v7.259h1.557l-0.03-4.545
		c0,0,0.034-1.461,1.861-1.461c0.339,0,0.603,0.082,0.811,0.209v-0.006l0.507-1.414C57.541,62.91,57.193,62.818,56.803,62.812
		L56.803,62.812z"/>
	<path fill="#0C0704" d="M78.719,62.812c-0.796-0.014-2.135,1.068-2.135,1.068v-0.883h-1.527v7.259h1.557l-0.03-4.545
		c0,0,0.034-1.461,1.861-1.461c0.339,0,0.603,0.082,0.811,0.209v-0.006l0.507-1.414C79.457,62.91,79.109,62.818,78.719,62.812
		L78.719,62.812L78.719,62.812z"/>
	<path fill="#0C0704" d="M24.703,64.261c1.251,0,2.266,1.088,2.266,2.428c0,1.339-1.015,2.422-2.266,2.422
		c-1.251,0-2.26-1.082-2.26-2.422C22.442,65.349,23.452,64.261,24.703,64.261L24.703,64.261z M24.405,62.782
		c-2.328,0-3.561,2.093-3.567,3.841c-0.006,1.792,1.403,3.859,3.632,3.859c1.301,0,2.369-0.96,2.369-0.96l-0.003,0.74h1.531v-7.268
		h-1.537v0.915C26.831,63.909,25.828,62.782,24.405,62.782L24.405,62.782L24.405,62.782z"/>
	<path fill="#0C0704" d="M69.363,64.261c1.251,0,2.266,1.088,2.266,2.428c0,1.339-1.015,2.422-2.266,2.422
		c-1.251,0-2.26-1.082-2.26-2.422C67.103,65.349,68.112,64.261,69.363,64.261L69.363,64.261z M69.065,62.782
		c-2.328,0-3.561,2.093-3.567,3.841c-0.006,1.792,1.403,3.859,3.632,3.859c1.301,0,2.369-0.96,2.369-0.96l-0.003,0.74h1.531v-7.268
		h-1.537v0.915C71.491,63.909,70.488,62.782,69.065,62.782L69.065,62.782L69.065,62.782z"/>
	<path fill="#0C0704" d="M84.067,64.261c1.251,0,2.266,1.088,2.266,2.428c0,1.339-1.016,2.422-2.266,2.422
		c-1.251,0-2.261-1.082-2.261-2.422C81.806,65.349,82.816,64.261,84.067,64.261L84.067,64.261z M83.769,62.782
		c-2.328,0-3.561,2.093-3.567,3.841c-0.006,1.792,1.403,3.859,3.632,3.859c1.301,0,2.369-0.96,2.369-0.96l-0.003,0.74h1.531V60.125
		h-1.537v3.784C86.195,63.909,85.192,62.782,83.769,62.782L83.769,62.782L83.769,62.782z"/>
	<path fill="#0C0704" d="M33.04,70.5c-1.586,0-3.05-0.976-3.05-0.976l0.671-1.037c0,0,1.386,0.641,2.379,0.641
		c0.646,0,1.726-0.208,1.739-0.854c0.014-0.682-1.815-0.885-1.815-0.885s-2.73-0.037-2.73-2.288c0-1.415,1.363-2.318,3.112-2.318
		c1.01,0,2.898,0.885,2.898,0.885l-0.763,1.19c0,0-1.458-0.582-2.227-0.61c-0.65-0.023-1.434,0.287-1.434,0.854
		c0,1.539,4.545-0.12,4.545,2.989C36.366,70.13,34.514,70.5,33.04,70.5L33.04,70.5L33.04,70.5z"/>
	<path fill="#0C0704" d="M38.892,60.891v2.111h-1.354v1.527h1.354v3.65c0,0-0.12,2.469,2.535,2.469c0.734,0,2.171-0.543,2.171-0.543
		l-0.614-1.587c0,0-0.571,0.487-1.217,0.471c-1.227-0.031-1.193-0.817-1.193-0.817v-3.644h2.529v-1.527h-2.529v-2.111H38.892
		L38.892,60.891z"/>
	<path fill="#0C0704" d="M47.881,64.297c0.059-0.003,0.122,0,0.185,0c1.868,0,1.855,1.765,1.855,1.765h-3.775
		C46.145,66.062,46.056,64.401,47.881,64.297L47.881,64.297z M48.107,62.871c-2.497,0-3.744,2.056-3.734,3.841
		c0.011,1.835,1.136,3.901,3.883,3.901c1.176,0,2.827-1.032,2.827-1.032l-0.71-1.235c0,0-1.127,0.799-2.117,0.799
		c-1.983,0-2.111-1.938-2.111-1.938h5.308C51.453,67.208,51.849,62.871,48.107,62.871L48.107,62.871z"/>
	<path fill="#0C0704" d="M63.897,68.328l0.712,1.424c0,0-1.128,0.733-2.394,0.733c-2.621,0-4.077-1.973-4.077-3.839
		c0-2.934,2.316-3.796,3.883-3.796c1.422,0,2.653,0.82,2.653,0.82l-0.798,1.424c0,0-0.484-0.755-1.898-0.755
		c-1.412,0-2.157,1.217-2.157,2.373c0,1.295,0.867,2.394,2.179,2.394C63.028,69.105,63.897,68.328,63.897,68.328L63.897,68.328
		L63.897,68.328z"/>
	<path fill="#0C0704" d="M90.984,69.776c0.039,0,0.069,0.007,0.092,0.022c0.022,0.015,0.033,0.037,0.034,0.067
		c0,0.03-0.012,0.053-0.034,0.069c-0.022,0.015-0.053,0.023-0.092,0.023h-0.167v-0.181H90.984L90.984,69.776z M90.986,69.649h-0.314
		v0.68h0.145v-0.255h0.066l0.206,0.255h0.174l-0.222-0.256c0.069-0.009,0.123-0.031,0.16-0.068c0.037-0.036,0.056-0.083,0.057-0.139
		c0-0.067-0.024-0.12-0.071-0.158C91.14,69.669,91.073,69.65,90.986,69.649L90.986,69.649z M90.943,70.561
		c-0.164-0.004-0.3-0.06-0.406-0.167s-0.162-0.242-0.166-0.403c0.004-0.162,0.059-0.297,0.166-0.403s0.242-0.161,0.406-0.165
		c0.161,0.004,0.294,0.059,0.4,0.165c0.106,0.106,0.161,0.241,0.165,0.403c-0.004,0.162-0.059,0.296-0.165,0.403
		C91.237,70.502,91.104,70.557,90.943,70.561L90.943,70.561z M90.943,69.26c-0.215,0.005-0.393,0.077-0.533,0.214
		c-0.139,0.138-0.212,0.31-0.217,0.517c0.005,0.205,0.077,0.377,0.217,0.516c0.139,0.138,0.317,0.21,0.533,0.216
		c0.211-0.005,0.386-0.077,0.526-0.216c0.14-0.138,0.213-0.31,0.218-0.516c-0.005-0.207-0.078-0.379-0.217-0.517
		C91.33,69.337,91.154,69.265,90.943,69.26L90.943,69.26z"/>
</g>
</svg>
