<?xml version="1.0" encoding="utf-8"?>
<!-- Generator: Adobe Illustrator 17.0.0, SVG Export Plug-In . SVG Version: 6.00 Build 0)  -->
<!DOCTYPE svg PUBLIC "-//W3C//DTD SVG 1.1//EN" "http://www.w3.org/Graphics/SVG/1.1/DTD/svg11.dtd">
<svg version="1.1" id="Capa_1" xmlns="http://www.w3.org/2000/svg" xmlns:xlink="http://www.w3.org/1999/xlink" x="0px" y="0px"
	 width="118px" height="47.333px" viewBox="0 0 118 47.333" enable-background="new 0 0 118 47.333" xml:space="preserve">
<g>
	<defs>
		<path id="SVGID_93_" d="M35.097,7.12l-9.416,23.803l-3.809-20.238C21.426,8.425,19.66,7.12,17.699,7.12H2.304L2.091,8.134
			c3.159,0.688,6.751,1.795,8.925,2.976c1.332,0.723,1.711,1.354,2.149,3.072l7.214,27.911h9.563L44.6,7.12H35.097z M48.482,7.12
			l-7.484,34.973h9.047L57.528,7.12H48.482z M100.354,16.569l2.741,13.131h-7.504L100.354,16.569z M99.028,7.12
			c-1.737,0-3.202,1.01-3.851,2.565L81.601,42.093H91.1l1.888-5.226h11.605l1.094,5.226h8.367L106.749,7.12H99.028z M59.992,18.04
			c-0.059,5.037,4.492,7.844,7.922,9.519c3.523,1.714,4.705,2.813,4.692,4.346c-0.026,2.347-2.812,3.381-5.415,3.422
			c-4.548,0.071-7.188-1.229-9.292-2.209l-1.638,7.664c2.112,0.969,6.015,1.815,10.06,1.858c9.505,0,15.721-4.694,15.751-11.967
			c0.04-9.229-12.763-9.738-12.675-13.862c0.029-1.254,1.223-2.587,3.837-2.93c1.295-0.168,4.871-0.299,8.919,1.565l1.591-7.416
			c-2.178-0.79-4.978-1.55-8.465-1.55C66.337,6.48,60.043,11.234,59.992,18.04"/>
	</defs>
	<use xlink:href="#SVGID_93_"  overflow="visible" fill="#1A1F71"/>
	<clipPath id="SVGID_2_">
		<use xlink:href="#SVGID_93_"  overflow="visible"/>
	</clipPath>
	<rect x="2.091" y="6.48" clip-path="url(#SVGID_2_)" fill="#1A1F71" width="111.962" height="36.16"/>
</g>
<g>
	<defs>
		<rect id="SVGID_95_" x="-212" y="-11.667" width="206" height="72"/>
	</defs>
	<clipPath id="SVGID_4_">
		<use xlink:href="#SVGID_95_"  overflow="visible"/>
	</clipPath>
	<g id="_x38_2g8gw_1_" clip-path="url(#SVGID_4_)">
		
			<image overflow="visible" width="800" height="221" id="_x38_2g8gw_2_" xlink:href="B1863B7B00890958.png"  transform="matrix(0.5306 0 0 0.5306 -376.8649 -43.1268)">
		</image>
	</g>
</g>
</svg>
